<mxfile host="app.diagrams.net" modified="2024-04-12T04:24:48.463Z" agent="Mozilla/5.0 (Windows NT 10.0; Win64; x64) AppleWebKit/537.36 (KHTML, like Gecko) Chrome/123.0.0.0 Safari/537.36" etag="WYHrDgdZlxC9KslTRHoS" version="24.2.1" type="device">
  <diagram name="Trang-1" id="ImfzcQy4C00rAxvfgTq4">
    <mxGraphModel dx="1909" dy="2549" grid="0" gridSize="10" guides="1" tooltips="1" connect="1" arrows="1" fold="1" page="0" pageScale="1" pageWidth="827" pageHeight="1169" math="0" shadow="0">
      <root>
        <mxCell id="0" />
        <mxCell id="1" parent="0" />
        <mxCell id="WycvyNZacFiMH92AML4h-4" value="&lt;font style=&quot;font-size: 30px;&quot;&gt;D&lt;/font&gt;" style="rounded=0;whiteSpace=wrap;html=1;" vertex="1" parent="1">
          <mxGeometry x="1160" y="2060" width="50" height="60" as="geometry" />
        </mxCell>
        <mxCell id="WycvyNZacFiMH92AML4h-5" value="&lt;font style=&quot;font-size: 30px;&quot;&gt;D&lt;/font&gt;" style="rounded=0;whiteSpace=wrap;html=1;" vertex="1" parent="1">
          <mxGeometry x="1307" y="2040" width="50" height="60" as="geometry" />
        </mxCell>
        <mxCell id="WycvyNZacFiMH92AML4h-12" value="" style="endArrow=classic;html=1;rounded=0;" edge="1" parent="1">
          <mxGeometry width="50" height="50" relative="1" as="geometry">
            <mxPoint x="70" y="-900" as="sourcePoint" />
            <mxPoint x="140" y="-900" as="targetPoint" />
          </mxGeometry>
        </mxCell>
        <mxCell id="WycvyNZacFiMH92AML4h-13" value="&lt;font style=&quot;font-size: 70px;&quot;&gt;+&lt;/font&gt;" style="ellipse;whiteSpace=wrap;html=1;aspect=fixed;rotation=45;" vertex="1" parent="1">
          <mxGeometry x="530" y="-1020" width="50" height="50" as="geometry" />
        </mxCell>
        <mxCell id="WycvyNZacFiMH92AML4h-19" value="&lt;font style=&quot;font-size: 30px;&quot;&gt;D&lt;/font&gt;" style="rounded=0;whiteSpace=wrap;html=1;" vertex="1" parent="1">
          <mxGeometry x="1330" y="1900" width="50" height="60" as="geometry" />
        </mxCell>
        <mxCell id="WycvyNZacFiMH92AML4h-20" value="&lt;font style=&quot;font-size: 30px;&quot;&gt;D&lt;/font&gt;" style="rounded=0;whiteSpace=wrap;html=1;" vertex="1" parent="1">
          <mxGeometry x="1370" y="1960" width="50" height="60" as="geometry" />
        </mxCell>
        <mxCell id="WycvyNZacFiMH92AML4h-49" style="edgeStyle=orthogonalEdgeStyle;rounded=0;orthogonalLoop=1;jettySize=auto;html=1;entryX=0;entryY=0.5;entryDx=0;entryDy=0;" edge="1" parent="1" source="WycvyNZacFiMH92AML4h-33" target="WycvyNZacFiMH92AML4h-42">
          <mxGeometry relative="1" as="geometry" />
        </mxCell>
        <mxCell id="WycvyNZacFiMH92AML4h-33" value="&lt;font style=&quot;font-size: 30px;&quot;&gt;D&lt;/font&gt;" style="rounded=0;whiteSpace=wrap;html=1;" vertex="1" parent="1">
          <mxGeometry x="250" y="-760" width="50" height="50" as="geometry" />
        </mxCell>
        <mxCell id="WycvyNZacFiMH92AML4h-36" value="" style="group" vertex="1" connectable="0" parent="1">
          <mxGeometry x="150" y="-900" width="50" height="190" as="geometry" />
        </mxCell>
        <mxCell id="WycvyNZacFiMH92AML4h-39" value="" style="group" vertex="1" connectable="0" parent="WycvyNZacFiMH92AML4h-36">
          <mxGeometry x="-10" width="50" height="190" as="geometry" />
        </mxCell>
        <mxCell id="WycvyNZacFiMH92AML4h-24" value="" style="endArrow=classic;html=1;rounded=0;entryX=0.5;entryY=0;entryDx=0;entryDy=0;" edge="1" parent="WycvyNZacFiMH92AML4h-39" target="WycvyNZacFiMH92AML4h-28">
          <mxGeometry width="50" height="50" relative="1" as="geometry">
            <mxPoint x="25" as="sourcePoint" />
            <mxPoint x="24.74000000000001" y="170" as="targetPoint" />
          </mxGeometry>
        </mxCell>
        <mxCell id="WycvyNZacFiMH92AML4h-28" value="&lt;font style=&quot;font-size: 70px;&quot;&gt;+&lt;/font&gt;" style="ellipse;whiteSpace=wrap;html=1;aspect=fixed;" vertex="1" parent="WycvyNZacFiMH92AML4h-39">
          <mxGeometry y="140" width="50" height="50" as="geometry" />
        </mxCell>
        <mxCell id="WycvyNZacFiMH92AML4h-23" value="" style="triangle;whiteSpace=wrap;html=1;rotation=90;" vertex="1" parent="WycvyNZacFiMH92AML4h-39">
          <mxGeometry x="12.5" y="50" width="25" height="40" as="geometry" />
        </mxCell>
        <mxCell id="WycvyNZacFiMH92AML4h-51" style="edgeStyle=orthogonalEdgeStyle;rounded=0;orthogonalLoop=1;jettySize=auto;html=1;entryX=0;entryY=0.5;entryDx=0;entryDy=0;" edge="1" parent="1" source="WycvyNZacFiMH92AML4h-38" target="WycvyNZacFiMH92AML4h-46">
          <mxGeometry relative="1" as="geometry" />
        </mxCell>
        <mxCell id="WycvyNZacFiMH92AML4h-38" value="&lt;font style=&quot;font-size: 30px;&quot;&gt;D&lt;/font&gt;" style="rounded=0;whiteSpace=wrap;html=1;" vertex="1" parent="1">
          <mxGeometry x="460" y="-760" width="50" height="50" as="geometry" />
        </mxCell>
        <mxCell id="WycvyNZacFiMH92AML4h-40" value="" style="group" vertex="1" connectable="0" parent="1">
          <mxGeometry x="360" y="-900" width="50" height="190" as="geometry" />
        </mxCell>
        <mxCell id="WycvyNZacFiMH92AML4h-41" value="" style="endArrow=classic;html=1;rounded=0;entryX=0.5;entryY=0;entryDx=0;entryDy=0;" edge="1" parent="WycvyNZacFiMH92AML4h-40" target="WycvyNZacFiMH92AML4h-42">
          <mxGeometry width="50" height="50" relative="1" as="geometry">
            <mxPoint x="25" as="sourcePoint" />
            <mxPoint x="24.74000000000001" y="170" as="targetPoint" />
          </mxGeometry>
        </mxCell>
        <mxCell id="WycvyNZacFiMH92AML4h-42" value="&lt;font style=&quot;font-size: 70px;&quot;&gt;+&lt;/font&gt;" style="ellipse;whiteSpace=wrap;html=1;aspect=fixed;" vertex="1" parent="WycvyNZacFiMH92AML4h-40">
          <mxGeometry y="140" width="50" height="50" as="geometry" />
        </mxCell>
        <mxCell id="WycvyNZacFiMH92AML4h-43" value="" style="triangle;whiteSpace=wrap;html=1;rotation=90;" vertex="1" parent="WycvyNZacFiMH92AML4h-40">
          <mxGeometry x="12.5" y="50" width="25" height="40" as="geometry" />
        </mxCell>
        <mxCell id="WycvyNZacFiMH92AML4h-44" value="" style="group" vertex="1" connectable="0" parent="1">
          <mxGeometry x="570" y="-900" width="50" height="190" as="geometry" />
        </mxCell>
        <mxCell id="WycvyNZacFiMH92AML4h-45" value="" style="endArrow=classic;html=1;rounded=0;entryX=0.5;entryY=0;entryDx=0;entryDy=0;" edge="1" parent="WycvyNZacFiMH92AML4h-44" target="WycvyNZacFiMH92AML4h-46">
          <mxGeometry width="50" height="50" relative="1" as="geometry">
            <mxPoint x="25" as="sourcePoint" />
            <mxPoint x="24.74000000000001" y="170" as="targetPoint" />
          </mxGeometry>
        </mxCell>
        <mxCell id="WycvyNZacFiMH92AML4h-46" value="&lt;font style=&quot;font-size: 70px;&quot;&gt;+&lt;/font&gt;" style="ellipse;whiteSpace=wrap;html=1;aspect=fixed;" vertex="1" parent="WycvyNZacFiMH92AML4h-44">
          <mxGeometry y="140" width="50" height="50" as="geometry" />
        </mxCell>
        <mxCell id="WycvyNZacFiMH92AML4h-47" value="" style="triangle;whiteSpace=wrap;html=1;rotation=90;" vertex="1" parent="WycvyNZacFiMH92AML4h-44">
          <mxGeometry x="12.5" y="50" width="25" height="40" as="geometry" />
        </mxCell>
        <mxCell id="WycvyNZacFiMH92AML4h-48" style="edgeStyle=orthogonalEdgeStyle;rounded=0;orthogonalLoop=1;jettySize=auto;html=1;entryX=0;entryY=0.5;entryDx=0;entryDy=0;" edge="1" parent="1" source="WycvyNZacFiMH92AML4h-28" target="WycvyNZacFiMH92AML4h-33">
          <mxGeometry relative="1" as="geometry" />
        </mxCell>
        <mxCell id="WycvyNZacFiMH92AML4h-50" style="edgeStyle=orthogonalEdgeStyle;rounded=0;orthogonalLoop=1;jettySize=auto;html=1;" edge="1" parent="1" source="WycvyNZacFiMH92AML4h-42" target="WycvyNZacFiMH92AML4h-38">
          <mxGeometry relative="1" as="geometry" />
        </mxCell>
        <mxCell id="WycvyNZacFiMH92AML4h-52" value="" style="endArrow=none;html=1;rounded=0;" edge="1" parent="1">
          <mxGeometry width="50" height="50" relative="1" as="geometry">
            <mxPoint x="80" y="-900" as="sourcePoint" />
            <mxPoint x="600" y="-900" as="targetPoint" />
          </mxGeometry>
        </mxCell>
        <mxCell id="WycvyNZacFiMH92AML4h-64" value="" style="group;rotation=-180;" vertex="1" connectable="0" parent="1">
          <mxGeometry x="350" y="-760" width="50" height="190" as="geometry" />
        </mxCell>
        <mxCell id="WycvyNZacFiMH92AML4h-65" value="" style="group;rotation=-180;" vertex="1" connectable="0" parent="WycvyNZacFiMH92AML4h-64">
          <mxGeometry x="10" width="50" height="190" as="geometry" />
        </mxCell>
        <mxCell id="WycvyNZacFiMH92AML4h-66" value="" style="endArrow=classic;html=1;rounded=0;entryX=0.5;entryY=0;entryDx=0;entryDy=0;" edge="1" parent="WycvyNZacFiMH92AML4h-65">
          <mxGeometry width="50" height="50" relative="1" as="geometry">
            <mxPoint x="25" y="190" as="sourcePoint" />
            <mxPoint x="25" y="50" as="targetPoint" />
          </mxGeometry>
        </mxCell>
        <mxCell id="WycvyNZacFiMH92AML4h-67" value="" style="triangle;whiteSpace=wrap;html=1;rotation=-90;" vertex="1" parent="WycvyNZacFiMH92AML4h-65">
          <mxGeometry x="12" y="100" width="25" height="40" as="geometry" />
        </mxCell>
        <mxCell id="WycvyNZacFiMH92AML4h-72" value="" style="endArrow=none;html=1;rounded=0;" edge="1" parent="1">
          <mxGeometry width="50" height="50" relative="1" as="geometry">
            <mxPoint x="170" y="-570" as="sourcePoint" />
            <mxPoint x="660" y="-570" as="targetPoint" />
          </mxGeometry>
        </mxCell>
        <mxCell id="WycvyNZacFiMH92AML4h-75" value="" style="endArrow=classic;html=1;rounded=0;" edge="1" parent="1" source="WycvyNZacFiMH92AML4h-46">
          <mxGeometry width="50" height="50" relative="1" as="geometry">
            <mxPoint x="280" y="-680" as="sourcePoint" />
            <mxPoint x="770" y="-735" as="targetPoint" />
          </mxGeometry>
        </mxCell>
        <mxCell id="WycvyNZacFiMH92AML4h-76" value="" style="endArrow=none;html=1;rounded=0;" edge="1" parent="1">
          <mxGeometry width="50" height="50" relative="1" as="geometry">
            <mxPoint x="660" y="-570" as="sourcePoint" />
            <mxPoint x="660" y="-740" as="targetPoint" />
          </mxGeometry>
        </mxCell>
        <mxCell id="WycvyNZacFiMH92AML4h-93" value="" style="group" vertex="1" connectable="0" parent="1">
          <mxGeometry x="1570" y="-1340" width="440" height="190" as="geometry" />
        </mxCell>
        <mxCell id="WycvyNZacFiMH92AML4h-91" value="" style="group" vertex="1" connectable="0" parent="WycvyNZacFiMH92AML4h-93">
          <mxGeometry y="60" width="440" height="130" as="geometry" />
        </mxCell>
        <mxCell id="WycvyNZacFiMH92AML4h-86" value="" style="endArrow=classic;html=1;rounded=0;entryX=0;entryY=0.5;entryDx=0;entryDy=0;" edge="1" parent="WycvyNZacFiMH92AML4h-91" target="WycvyNZacFiMH92AML4h-77">
          <mxGeometry width="50" height="50" relative="1" as="geometry">
            <mxPoint y="65" as="sourcePoint" />
            <mxPoint x="366.4464993394979" y="90" as="targetPoint" />
          </mxGeometry>
        </mxCell>
        <mxCell id="WycvyNZacFiMH92AML4h-92" value="" style="endArrow=classic;html=1;rounded=0;entryX=0.5;entryY=0;entryDx=0;entryDy=0;" edge="1" parent="WycvyNZacFiMH92AML4h-93" target="WycvyNZacFiMH92AML4h-77">
          <mxGeometry width="50" height="50" relative="1" as="geometry">
            <mxPoint x="489" y="-10" as="sourcePoint" />
            <mxPoint x="450" y="110" as="targetPoint" />
          </mxGeometry>
        </mxCell>
        <mxCell id="WycvyNZacFiMH92AML4h-97" value="" style="endArrow=classic;html=1;rounded=0;exitX=1;exitY=0.5;exitDx=0;exitDy=0;entryX=0.5;entryY=0;entryDx=0;entryDy=0;" edge="1" parent="1" source="WycvyNZacFiMH92AML4h-77" target="WycvyNZacFiMH92AML4h-148">
          <mxGeometry width="50" height="50" relative="1" as="geometry">
            <mxPoint x="2060" y="-1190" as="sourcePoint" />
            <mxPoint x="2190" y="-1215" as="targetPoint" />
            <Array as="points">
              <mxPoint x="2555" y="-1215" />
            </Array>
          </mxGeometry>
        </mxCell>
        <mxCell id="WycvyNZacFiMH92AML4h-110" value="" style="group" vertex="1" connectable="0" parent="1">
          <mxGeometry x="1770" y="-1120" width="620" height="190" as="geometry" />
        </mxCell>
        <mxCell id="WycvyNZacFiMH92AML4h-98" value="" style="group" vertex="1" connectable="0" parent="WycvyNZacFiMH92AML4h-110">
          <mxGeometry width="440" height="190" as="geometry" />
        </mxCell>
        <mxCell id="WycvyNZacFiMH92AML4h-99" value="" style="group" vertex="1" connectable="0" parent="WycvyNZacFiMH92AML4h-98">
          <mxGeometry y="60" width="440" height="130" as="geometry" />
        </mxCell>
        <mxCell id="WycvyNZacFiMH92AML4h-100" value="&lt;font style=&quot;font-size: 30px;&quot;&gt;&lt;font style=&quot;font-size: 30px;&quot;&gt;IIR&lt;/font&gt;&lt;font style=&quot;font-size: 30px;&quot;&gt;1&lt;/font&gt;&lt;/font&gt;" style="rounded=0;whiteSpace=wrap;html=1;" vertex="1" parent="WycvyNZacFiMH92AML4h-99">
          <mxGeometry x="141.76" width="298.24" height="130" as="geometry" />
        </mxCell>
        <mxCell id="WycvyNZacFiMH92AML4h-101" value="" style="endArrow=classic;html=1;rounded=0;entryX=0;entryY=0.5;entryDx=0;entryDy=0;" edge="1" parent="WycvyNZacFiMH92AML4h-99" target="WycvyNZacFiMH92AML4h-100">
          <mxGeometry width="50" height="50" relative="1" as="geometry">
            <mxPoint x="-200" y="65" as="sourcePoint" />
            <mxPoint x="366.4464993394979" y="90" as="targetPoint" />
          </mxGeometry>
        </mxCell>
        <mxCell id="WycvyNZacFiMH92AML4h-102" value="" style="endArrow=classic;html=1;rounded=0;entryX=0.5;entryY=0;entryDx=0;entryDy=0;" edge="1" parent="WycvyNZacFiMH92AML4h-98" target="WycvyNZacFiMH92AML4h-100">
          <mxGeometry width="50" height="50" relative="1" as="geometry">
            <mxPoint x="291" as="sourcePoint" />
            <mxPoint x="450" y="110" as="targetPoint" />
          </mxGeometry>
        </mxCell>
        <mxCell id="WycvyNZacFiMH92AML4h-478" value="g1" style="text;html=1;align=center;verticalAlign=middle;resizable=0;points=[];autosize=1;strokeColor=none;fillColor=none;" vertex="1" parent="WycvyNZacFiMH92AML4h-98">
          <mxGeometry x="290" width="40" height="30" as="geometry" />
        </mxCell>
        <mxCell id="WycvyNZacFiMH92AML4h-103" value="" style="endArrow=classic;html=1;rounded=0;exitX=1;exitY=0.5;exitDx=0;exitDy=0;" edge="1" parent="WycvyNZacFiMH92AML4h-110" source="WycvyNZacFiMH92AML4h-100">
          <mxGeometry width="50" height="50" relative="1" as="geometry">
            <mxPoint x="490" y="150" as="sourcePoint" />
            <mxPoint x="780" y="125" as="targetPoint" />
          </mxGeometry>
        </mxCell>
        <mxCell id="WycvyNZacFiMH92AML4h-111" value="" style="group" vertex="1" connectable="0" parent="1">
          <mxGeometry x="1770" y="-900" width="620" height="190" as="geometry" />
        </mxCell>
        <mxCell id="WycvyNZacFiMH92AML4h-112" value="" style="group" vertex="1" connectable="0" parent="WycvyNZacFiMH92AML4h-111">
          <mxGeometry width="440" height="190" as="geometry" />
        </mxCell>
        <mxCell id="WycvyNZacFiMH92AML4h-113" value="" style="group" vertex="1" connectable="0" parent="WycvyNZacFiMH92AML4h-112">
          <mxGeometry y="60" width="440" height="130" as="geometry" />
        </mxCell>
        <mxCell id="WycvyNZacFiMH92AML4h-114" value="&lt;font style=&quot;font-size: 30px;&quot;&gt;&lt;font style=&quot;font-size: 30px;&quot;&gt;IIR&lt;/font&gt;&lt;font style=&quot;font-size: 30px;&quot;&gt;2&lt;/font&gt;&lt;/font&gt;" style="rounded=0;whiteSpace=wrap;html=1;" vertex="1" parent="WycvyNZacFiMH92AML4h-113">
          <mxGeometry x="141.76" width="298.24" height="130" as="geometry" />
        </mxCell>
        <mxCell id="WycvyNZacFiMH92AML4h-115" value="" style="endArrow=classic;html=1;rounded=0;entryX=0;entryY=0.5;entryDx=0;entryDy=0;" edge="1" parent="WycvyNZacFiMH92AML4h-113" target="WycvyNZacFiMH92AML4h-114">
          <mxGeometry width="50" height="50" relative="1" as="geometry">
            <mxPoint x="-200" y="65" as="sourcePoint" />
            <mxPoint x="366.4464993394979" y="90" as="targetPoint" />
          </mxGeometry>
        </mxCell>
        <mxCell id="WycvyNZacFiMH92AML4h-116" value="" style="endArrow=classic;html=1;rounded=0;entryX=0.5;entryY=0;entryDx=0;entryDy=0;" edge="1" parent="WycvyNZacFiMH92AML4h-112" target="WycvyNZacFiMH92AML4h-114">
          <mxGeometry width="50" height="50" relative="1" as="geometry">
            <mxPoint x="291" as="sourcePoint" />
            <mxPoint x="450" y="110" as="targetPoint" />
          </mxGeometry>
        </mxCell>
        <mxCell id="WycvyNZacFiMH92AML4h-479" value="g2" style="text;html=1;align=center;verticalAlign=middle;resizable=0;points=[];autosize=1;strokeColor=none;fillColor=none;" vertex="1" parent="WycvyNZacFiMH92AML4h-112">
          <mxGeometry x="290" width="40" height="30" as="geometry" />
        </mxCell>
        <mxCell id="WycvyNZacFiMH92AML4h-117" value="" style="endArrow=classic;html=1;rounded=0;exitX=1;exitY=0.5;exitDx=0;exitDy=0;" edge="1" parent="WycvyNZacFiMH92AML4h-111" source="WycvyNZacFiMH92AML4h-114">
          <mxGeometry width="50" height="50" relative="1" as="geometry">
            <mxPoint x="490" y="150" as="sourcePoint" />
            <mxPoint x="780" y="125" as="targetPoint" />
          </mxGeometry>
        </mxCell>
        <mxCell id="WycvyNZacFiMH92AML4h-118" value="" style="group" vertex="1" connectable="0" parent="1">
          <mxGeometry x="1770" y="-680" width="620" height="190" as="geometry" />
        </mxCell>
        <mxCell id="WycvyNZacFiMH92AML4h-119" value="" style="group" vertex="1" connectable="0" parent="WycvyNZacFiMH92AML4h-118">
          <mxGeometry width="440" height="190" as="geometry" />
        </mxCell>
        <mxCell id="WycvyNZacFiMH92AML4h-120" value="" style="group" vertex="1" connectable="0" parent="WycvyNZacFiMH92AML4h-119">
          <mxGeometry y="60" width="440" height="130" as="geometry" />
        </mxCell>
        <mxCell id="WycvyNZacFiMH92AML4h-121" value="&lt;font style=&quot;font-size: 30px;&quot;&gt;&lt;font style=&quot;font-size: 30px;&quot;&gt;IIR&lt;/font&gt;&lt;font style=&quot;font-size: 30px;&quot;&gt;3&lt;/font&gt;&lt;/font&gt;" style="rounded=0;whiteSpace=wrap;html=1;" vertex="1" parent="WycvyNZacFiMH92AML4h-120">
          <mxGeometry x="141.76" width="298.24" height="130" as="geometry" />
        </mxCell>
        <mxCell id="WycvyNZacFiMH92AML4h-122" value="" style="endArrow=classic;html=1;rounded=0;entryX=0;entryY=0.5;entryDx=0;entryDy=0;" edge="1" parent="WycvyNZacFiMH92AML4h-120" target="WycvyNZacFiMH92AML4h-121">
          <mxGeometry width="50" height="50" relative="1" as="geometry">
            <mxPoint x="-200" y="65" as="sourcePoint" />
            <mxPoint x="366.4464993394979" y="90" as="targetPoint" />
          </mxGeometry>
        </mxCell>
        <mxCell id="WycvyNZacFiMH92AML4h-123" value="" style="endArrow=classic;html=1;rounded=0;entryX=0.5;entryY=0;entryDx=0;entryDy=0;" edge="1" parent="WycvyNZacFiMH92AML4h-119" target="WycvyNZacFiMH92AML4h-121">
          <mxGeometry width="50" height="50" relative="1" as="geometry">
            <mxPoint x="291" as="sourcePoint" />
            <mxPoint x="450" y="110" as="targetPoint" />
          </mxGeometry>
        </mxCell>
        <mxCell id="WycvyNZacFiMH92AML4h-480" value="g3" style="text;html=1;align=center;verticalAlign=middle;resizable=0;points=[];autosize=1;strokeColor=none;fillColor=none;" vertex="1" parent="WycvyNZacFiMH92AML4h-119">
          <mxGeometry x="290" width="40" height="30" as="geometry" />
        </mxCell>
        <mxCell id="WycvyNZacFiMH92AML4h-124" value="" style="endArrow=classic;html=1;rounded=0;exitX=1;exitY=0.5;exitDx=0;exitDy=0;" edge="1" parent="WycvyNZacFiMH92AML4h-118" source="WycvyNZacFiMH92AML4h-121">
          <mxGeometry width="50" height="50" relative="1" as="geometry">
            <mxPoint x="490" y="150" as="sourcePoint" />
            <mxPoint x="780" y="125" as="targetPoint" />
          </mxGeometry>
        </mxCell>
        <mxCell id="WycvyNZacFiMH92AML4h-125" value="" style="group;fontSize=30;" vertex="1" connectable="0" parent="1">
          <mxGeometry x="1770" y="-460" width="620" height="190" as="geometry" />
        </mxCell>
        <mxCell id="WycvyNZacFiMH92AML4h-126" value="" style="group" vertex="1" connectable="0" parent="WycvyNZacFiMH92AML4h-125">
          <mxGeometry width="440" height="190" as="geometry" />
        </mxCell>
        <mxCell id="WycvyNZacFiMH92AML4h-127" value="" style="group" vertex="1" connectable="0" parent="WycvyNZacFiMH92AML4h-126">
          <mxGeometry y="60" width="440" height="130" as="geometry" />
        </mxCell>
        <mxCell id="WycvyNZacFiMH92AML4h-128" value="&lt;font style=&quot;font-size: 30px;&quot;&gt;&lt;font style=&quot;font-size: 30px;&quot;&gt;IIR&lt;/font&gt;&lt;font style=&quot;font-size: 30px;&quot;&gt;4&lt;/font&gt;&lt;/font&gt;" style="rounded=0;whiteSpace=wrap;html=1;" vertex="1" parent="WycvyNZacFiMH92AML4h-127">
          <mxGeometry x="141.76" width="298.24" height="130" as="geometry" />
        </mxCell>
        <mxCell id="WycvyNZacFiMH92AML4h-129" value="" style="endArrow=classic;html=1;rounded=0;entryX=0;entryY=0.5;entryDx=0;entryDy=0;" edge="1" parent="WycvyNZacFiMH92AML4h-127" target="WycvyNZacFiMH92AML4h-128">
          <mxGeometry width="50" height="50" relative="1" as="geometry">
            <mxPoint x="-200" y="65" as="sourcePoint" />
            <mxPoint x="366.4464993394979" y="90" as="targetPoint" />
          </mxGeometry>
        </mxCell>
        <mxCell id="WycvyNZacFiMH92AML4h-130" value="" style="endArrow=classic;html=1;rounded=0;entryX=0.5;entryY=0;entryDx=0;entryDy=0;" edge="1" parent="WycvyNZacFiMH92AML4h-126" target="WycvyNZacFiMH92AML4h-128">
          <mxGeometry width="50" height="50" relative="1" as="geometry">
            <mxPoint x="291" as="sourcePoint" />
            <mxPoint x="450" y="110" as="targetPoint" />
          </mxGeometry>
        </mxCell>
        <mxCell id="WycvyNZacFiMH92AML4h-481" value="g4" style="text;html=1;align=center;verticalAlign=middle;resizable=0;points=[];autosize=1;strokeColor=none;fillColor=none;" vertex="1" parent="WycvyNZacFiMH92AML4h-126">
          <mxGeometry x="290" width="40" height="30" as="geometry" />
        </mxCell>
        <mxCell id="WycvyNZacFiMH92AML4h-131" value="" style="endArrow=classic;html=1;rounded=0;exitX=1;exitY=0.5;exitDx=0;exitDy=0;" edge="1" parent="WycvyNZacFiMH92AML4h-125" source="WycvyNZacFiMH92AML4h-128">
          <mxGeometry width="50" height="50" relative="1" as="geometry">
            <mxPoint x="490" y="150" as="sourcePoint" />
            <mxPoint x="780" y="125" as="targetPoint" />
          </mxGeometry>
        </mxCell>
        <mxCell id="WycvyNZacFiMH92AML4h-132" value="" style="group" vertex="1" connectable="0" parent="1">
          <mxGeometry x="1770" y="-240" width="620" height="190" as="geometry" />
        </mxCell>
        <mxCell id="WycvyNZacFiMH92AML4h-133" value="" style="group" vertex="1" connectable="0" parent="WycvyNZacFiMH92AML4h-132">
          <mxGeometry width="440" height="190" as="geometry" />
        </mxCell>
        <mxCell id="WycvyNZacFiMH92AML4h-134" value="" style="group" vertex="1" connectable="0" parent="WycvyNZacFiMH92AML4h-133">
          <mxGeometry y="60" width="440" height="130" as="geometry" />
        </mxCell>
        <mxCell id="WycvyNZacFiMH92AML4h-135" value="&lt;font style=&quot;font-size: 30px;&quot;&gt;&lt;font style=&quot;font-size: 30px;&quot;&gt;IIR&lt;/font&gt;&lt;font style=&quot;font-size: 30px;&quot;&gt;5&lt;/font&gt;&lt;/font&gt;" style="rounded=0;whiteSpace=wrap;html=1;" vertex="1" parent="WycvyNZacFiMH92AML4h-134">
          <mxGeometry x="141.76" width="298.24" height="130" as="geometry" />
        </mxCell>
        <mxCell id="WycvyNZacFiMH92AML4h-136" value="" style="endArrow=classic;html=1;rounded=0;entryX=0;entryY=0.5;entryDx=0;entryDy=0;" edge="1" parent="WycvyNZacFiMH92AML4h-134" target="WycvyNZacFiMH92AML4h-135">
          <mxGeometry width="50" height="50" relative="1" as="geometry">
            <mxPoint x="-200" y="65" as="sourcePoint" />
            <mxPoint x="366.4464993394979" y="90" as="targetPoint" />
          </mxGeometry>
        </mxCell>
        <mxCell id="WycvyNZacFiMH92AML4h-137" value="" style="endArrow=classic;html=1;rounded=0;entryX=0.5;entryY=0;entryDx=0;entryDy=0;" edge="1" parent="WycvyNZacFiMH92AML4h-133" target="WycvyNZacFiMH92AML4h-135">
          <mxGeometry width="50" height="50" relative="1" as="geometry">
            <mxPoint x="291" as="sourcePoint" />
            <mxPoint x="450" y="110" as="targetPoint" />
          </mxGeometry>
        </mxCell>
        <mxCell id="WycvyNZacFiMH92AML4h-482" value="g5" style="text;html=1;align=center;verticalAlign=middle;resizable=0;points=[];autosize=1;strokeColor=none;fillColor=none;" vertex="1" parent="WycvyNZacFiMH92AML4h-133">
          <mxGeometry x="290" width="40" height="30" as="geometry" />
        </mxCell>
        <mxCell id="WycvyNZacFiMH92AML4h-138" value="" style="endArrow=classic;html=1;rounded=0;exitX=1;exitY=0.5;exitDx=0;exitDy=0;" edge="1" parent="WycvyNZacFiMH92AML4h-132" source="WycvyNZacFiMH92AML4h-135">
          <mxGeometry width="50" height="50" relative="1" as="geometry">
            <mxPoint x="490" y="150" as="sourcePoint" />
            <mxPoint x="780" y="125" as="targetPoint" />
          </mxGeometry>
        </mxCell>
        <mxCell id="WycvyNZacFiMH92AML4h-139" value="" style="group" vertex="1" connectable="0" parent="1">
          <mxGeometry x="1770" y="-30" width="620" height="190" as="geometry" />
        </mxCell>
        <mxCell id="WycvyNZacFiMH92AML4h-140" value="" style="group" vertex="1" connectable="0" parent="WycvyNZacFiMH92AML4h-139">
          <mxGeometry width="440" height="190" as="geometry" />
        </mxCell>
        <mxCell id="WycvyNZacFiMH92AML4h-141" value="" style="group" vertex="1" connectable="0" parent="WycvyNZacFiMH92AML4h-140">
          <mxGeometry y="60" width="440" height="130" as="geometry" />
        </mxCell>
        <mxCell id="WycvyNZacFiMH92AML4h-142" value="&lt;font style=&quot;font-size: 30px;&quot;&gt;&lt;font style=&quot;font-size: 30px;&quot;&gt;IIR&lt;/font&gt;&lt;font style=&quot;font-size: 30px;&quot;&gt;6&lt;/font&gt;&lt;/font&gt;" style="rounded=0;whiteSpace=wrap;html=1;" vertex="1" parent="WycvyNZacFiMH92AML4h-141">
          <mxGeometry x="141.76" width="298.24" height="130" as="geometry" />
        </mxCell>
        <mxCell id="WycvyNZacFiMH92AML4h-143" value="" style="endArrow=classic;html=1;rounded=0;entryX=0;entryY=0.5;entryDx=0;entryDy=0;" edge="1" parent="WycvyNZacFiMH92AML4h-141" target="WycvyNZacFiMH92AML4h-142">
          <mxGeometry width="50" height="50" relative="1" as="geometry">
            <mxPoint x="-200" y="65" as="sourcePoint" />
            <mxPoint x="366.4464993394979" y="90" as="targetPoint" />
          </mxGeometry>
        </mxCell>
        <mxCell id="WycvyNZacFiMH92AML4h-144" value="" style="endArrow=classic;html=1;rounded=0;entryX=0.5;entryY=0;entryDx=0;entryDy=0;" edge="1" parent="WycvyNZacFiMH92AML4h-140" target="WycvyNZacFiMH92AML4h-142">
          <mxGeometry width="50" height="50" relative="1" as="geometry">
            <mxPoint x="291" as="sourcePoint" />
            <mxPoint x="450" y="110" as="targetPoint" />
          </mxGeometry>
        </mxCell>
        <mxCell id="WycvyNZacFiMH92AML4h-483" value="g6" style="text;html=1;align=center;verticalAlign=middle;resizable=0;points=[];autosize=1;strokeColor=none;fillColor=none;" vertex="1" parent="WycvyNZacFiMH92AML4h-140">
          <mxGeometry x="290" width="40" height="30" as="geometry" />
        </mxCell>
        <mxCell id="WycvyNZacFiMH92AML4h-145" value="" style="endArrow=classic;html=1;rounded=0;exitX=1;exitY=0.5;exitDx=0;exitDy=0;" edge="1" parent="WycvyNZacFiMH92AML4h-139" source="WycvyNZacFiMH92AML4h-142">
          <mxGeometry width="50" height="50" relative="1" as="geometry">
            <mxPoint x="490" y="150" as="sourcePoint" />
            <mxPoint x="780" y="125" as="targetPoint" />
          </mxGeometry>
        </mxCell>
        <mxCell id="WycvyNZacFiMH92AML4h-146" value="" style="endArrow=none;html=1;rounded=0;" edge="1" parent="1">
          <mxGeometry width="50" height="50" relative="1" as="geometry">
            <mxPoint x="1570" y="350" as="sourcePoint" />
            <mxPoint x="1570" y="-1220" as="targetPoint" />
          </mxGeometry>
        </mxCell>
        <mxCell id="WycvyNZacFiMH92AML4h-275" style="edgeStyle=orthogonalEdgeStyle;rounded=0;orthogonalLoop=1;jettySize=auto;html=1;shape=flexArrow;" edge="1" parent="1" source="WycvyNZacFiMH92AML4h-148">
          <mxGeometry relative="1" as="geometry">
            <mxPoint x="2790" y="-447" as="targetPoint" />
          </mxGeometry>
        </mxCell>
        <mxCell id="WycvyNZacFiMH92AML4h-148" value="&lt;font style=&quot;font-size: 70px;&quot;&gt;+&lt;/font&gt;" style="ellipse;whiteSpace=wrap;html=1;aspect=fixed;" vertex="1" parent="1">
          <mxGeometry x="2480" y="-522" width="150" height="150" as="geometry" />
        </mxCell>
        <mxCell id="WycvyNZacFiMH92AML4h-149" value="" style="group" vertex="1" connectable="0" parent="1">
          <mxGeometry x="1770" y="220" width="620" height="190" as="geometry" />
        </mxCell>
        <mxCell id="WycvyNZacFiMH92AML4h-150" value="" style="group" vertex="1" connectable="0" parent="WycvyNZacFiMH92AML4h-149">
          <mxGeometry width="440" height="190" as="geometry" />
        </mxCell>
        <mxCell id="WycvyNZacFiMH92AML4h-151" value="" style="group" vertex="1" connectable="0" parent="WycvyNZacFiMH92AML4h-150">
          <mxGeometry y="60" width="440" height="130" as="geometry" />
        </mxCell>
        <mxCell id="WycvyNZacFiMH92AML4h-152" value="&lt;font style=&quot;font-size: 30px;&quot;&gt;&lt;font style=&quot;font-size: 30px;&quot;&gt;IIR&lt;/font&gt;&lt;font style=&quot;font-size: 30px;&quot;&gt;7&lt;/font&gt;&lt;/font&gt;" style="rounded=0;whiteSpace=wrap;html=1;" vertex="1" parent="WycvyNZacFiMH92AML4h-151">
          <mxGeometry x="141.76" width="298.24" height="130" as="geometry" />
        </mxCell>
        <mxCell id="WycvyNZacFiMH92AML4h-153" value="" style="endArrow=classic;html=1;rounded=0;entryX=0;entryY=0.5;entryDx=0;entryDy=0;" edge="1" parent="WycvyNZacFiMH92AML4h-151" target="WycvyNZacFiMH92AML4h-152">
          <mxGeometry width="50" height="50" relative="1" as="geometry">
            <mxPoint x="-200" y="65" as="sourcePoint" />
            <mxPoint x="366.4464993394979" y="90" as="targetPoint" />
          </mxGeometry>
        </mxCell>
        <mxCell id="WycvyNZacFiMH92AML4h-154" value="" style="endArrow=classic;html=1;rounded=0;entryX=0.5;entryY=0;entryDx=0;entryDy=0;" edge="1" parent="WycvyNZacFiMH92AML4h-150" target="WycvyNZacFiMH92AML4h-152">
          <mxGeometry width="50" height="50" relative="1" as="geometry">
            <mxPoint x="291" as="sourcePoint" />
            <mxPoint x="450" y="110" as="targetPoint" />
          </mxGeometry>
        </mxCell>
        <mxCell id="WycvyNZacFiMH92AML4h-484" value="g7" style="text;html=1;align=center;verticalAlign=middle;resizable=0;points=[];autosize=1;strokeColor=none;fillColor=none;" vertex="1" parent="WycvyNZacFiMH92AML4h-150">
          <mxGeometry x="290" width="40" height="30" as="geometry" />
        </mxCell>
        <mxCell id="WycvyNZacFiMH92AML4h-156" value="" style="endArrow=classic;html=1;rounded=0;fontSize=19;shape=flexArrow;" edge="1" parent="1">
          <mxGeometry width="50" height="50" relative="1" as="geometry">
            <mxPoint x="1145" y="-448.43" as="sourcePoint" />
            <mxPoint x="1575" y="-448.43" as="targetPoint" />
          </mxGeometry>
        </mxCell>
        <mxCell id="WycvyNZacFiMH92AML4h-174" value="" style="group;rotation=-180;" vertex="1" connectable="0" parent="1">
          <mxGeometry x="130" y="-760" width="50" height="190" as="geometry" />
        </mxCell>
        <mxCell id="WycvyNZacFiMH92AML4h-175" value="" style="group;rotation=-180;" vertex="1" connectable="0" parent="WycvyNZacFiMH92AML4h-174">
          <mxGeometry x="10" width="50" height="190" as="geometry" />
        </mxCell>
        <mxCell id="WycvyNZacFiMH92AML4h-176" value="" style="endArrow=classic;html=1;rounded=0;entryX=0.5;entryY=0;entryDx=0;entryDy=0;" edge="1" parent="WycvyNZacFiMH92AML4h-175">
          <mxGeometry width="50" height="50" relative="1" as="geometry">
            <mxPoint x="25" y="190" as="sourcePoint" />
            <mxPoint x="25" y="50" as="targetPoint" />
          </mxGeometry>
        </mxCell>
        <mxCell id="WycvyNZacFiMH92AML4h-177" value="" style="triangle;whiteSpace=wrap;html=1;rotation=-90;" vertex="1" parent="WycvyNZacFiMH92AML4h-175">
          <mxGeometry x="12" y="100" width="25" height="40" as="geometry" />
        </mxCell>
        <mxCell id="WycvyNZacFiMH92AML4h-270" value="" style="group" vertex="1" connectable="0" parent="1">
          <mxGeometry x="150" y="1090" width="505" height="480" as="geometry" />
        </mxCell>
        <mxCell id="WycvyNZacFiMH92AML4h-255" value="" style="endArrow=classic;html=1;rounded=0;" edge="1" parent="WycvyNZacFiMH92AML4h-270">
          <mxGeometry width="50" height="50" relative="1" as="geometry">
            <mxPoint x="10" y="59.620000000000005" as="sourcePoint" />
            <mxPoint x="490" y="59.620000000000005" as="targetPoint" />
          </mxGeometry>
        </mxCell>
        <mxCell id="WycvyNZacFiMH92AML4h-180" value="" style="group;rotation=-90;" vertex="1" connectable="0" parent="WycvyNZacFiMH92AML4h-270">
          <mxGeometry x="130" y="145" width="110" height="200" as="geometry" />
        </mxCell>
        <mxCell id="WycvyNZacFiMH92AML4h-181" value="" style="group;rotation=-90;" vertex="1" connectable="0" parent="WycvyNZacFiMH92AML4h-180">
          <mxGeometry y="10" width="110" height="190" as="geometry" />
        </mxCell>
        <mxCell id="WycvyNZacFiMH92AML4h-194" value="" style="group" vertex="1" connectable="0" parent="WycvyNZacFiMH92AML4h-181">
          <mxGeometry x="-70" y="70" width="190" height="50" as="geometry" />
        </mxCell>
        <mxCell id="WycvyNZacFiMH92AML4h-182" value="" style="endArrow=classic;html=1;rounded=0;entryX=0.5;entryY=0;entryDx=0;entryDy=0;" edge="1" parent="WycvyNZacFiMH92AML4h-194">
          <mxGeometry width="50" height="50" relative="1" as="geometry">
            <mxPoint y="25" as="sourcePoint" />
            <mxPoint x="140" y="25" as="targetPoint" />
          </mxGeometry>
        </mxCell>
        <mxCell id="WycvyNZacFiMH92AML4h-183" value="" style="triangle;whiteSpace=wrap;html=1;rotation=0;" vertex="1" parent="WycvyNZacFiMH92AML4h-194">
          <mxGeometry x="58" y="5" width="25" height="40" as="geometry" />
        </mxCell>
        <mxCell id="WycvyNZacFiMH92AML4h-191" value="&lt;font style=&quot;font-size: 70px;&quot;&gt;+&lt;/font&gt;" style="ellipse;whiteSpace=wrap;html=1;aspect=fixed;" vertex="1" parent="WycvyNZacFiMH92AML4h-194">
          <mxGeometry x="140" width="50" height="50" as="geometry" />
        </mxCell>
        <mxCell id="WycvyNZacFiMH92AML4h-256" value="b1" style="text;html=1;align=center;verticalAlign=middle;resizable=0;points=[];autosize=1;strokeColor=none;fillColor=none;" vertex="1" parent="WycvyNZacFiMH92AML4h-181">
          <mxGeometry x="-27.5" y="115" width="40" height="30" as="geometry" />
        </mxCell>
        <mxCell id="WycvyNZacFiMH92AML4h-195" value="" style="group;rotation=-90;" vertex="1" connectable="0" parent="WycvyNZacFiMH92AML4h-270">
          <mxGeometry x="130" y="325" width="110" height="200" as="geometry" />
        </mxCell>
        <mxCell id="WycvyNZacFiMH92AML4h-196" value="" style="group;rotation=-90;" vertex="1" connectable="0" parent="WycvyNZacFiMH92AML4h-195">
          <mxGeometry y="10" width="110" height="190" as="geometry" />
        </mxCell>
        <mxCell id="WycvyNZacFiMH92AML4h-197" value="" style="group" vertex="1" connectable="0" parent="WycvyNZacFiMH92AML4h-196">
          <mxGeometry x="-70" y="70" width="190" height="50" as="geometry" />
        </mxCell>
        <mxCell id="WycvyNZacFiMH92AML4h-198" value="" style="endArrow=classic;html=1;rounded=0;entryX=0.5;entryY=0;entryDx=0;entryDy=0;" edge="1" parent="WycvyNZacFiMH92AML4h-197">
          <mxGeometry width="50" height="50" relative="1" as="geometry">
            <mxPoint y="25" as="sourcePoint" />
            <mxPoint x="140" y="25" as="targetPoint" />
          </mxGeometry>
        </mxCell>
        <mxCell id="WycvyNZacFiMH92AML4h-199" value="" style="triangle;whiteSpace=wrap;html=1;rotation=0;" vertex="1" parent="WycvyNZacFiMH92AML4h-197">
          <mxGeometry x="58" y="5" width="25" height="40" as="geometry" />
        </mxCell>
        <mxCell id="WycvyNZacFiMH92AML4h-200" value="&lt;font style=&quot;font-size: 70px;&quot;&gt;+&lt;/font&gt;" style="ellipse;whiteSpace=wrap;html=1;aspect=fixed;" vertex="1" parent="WycvyNZacFiMH92AML4h-197">
          <mxGeometry x="140" width="50" height="50" as="geometry" />
        </mxCell>
        <mxCell id="WycvyNZacFiMH92AML4h-258" value="b2" style="text;html=1;align=center;verticalAlign=middle;resizable=0;points=[];autosize=1;strokeColor=none;fillColor=none;" vertex="1" parent="WycvyNZacFiMH92AML4h-196">
          <mxGeometry x="-25" y="40" width="40" height="30" as="geometry" />
        </mxCell>
        <mxCell id="WycvyNZacFiMH92AML4h-201" value="" style="group;rotation=-90;" vertex="1" connectable="0" parent="WycvyNZacFiMH92AML4h-270">
          <mxGeometry x="130" y="-45" width="110" height="200" as="geometry" />
        </mxCell>
        <mxCell id="WycvyNZacFiMH92AML4h-202" value="" style="group;rotation=-90;" vertex="1" connectable="0" parent="WycvyNZacFiMH92AML4h-201">
          <mxGeometry y="10" width="110" height="190" as="geometry" />
        </mxCell>
        <mxCell id="WycvyNZacFiMH92AML4h-203" value="" style="group" vertex="1" connectable="0" parent="WycvyNZacFiMH92AML4h-202">
          <mxGeometry x="-70" y="70" width="190" height="50" as="geometry" />
        </mxCell>
        <mxCell id="WycvyNZacFiMH92AML4h-204" value="" style="endArrow=classic;html=1;rounded=0;entryX=0.5;entryY=0;entryDx=0;entryDy=0;" edge="1" parent="WycvyNZacFiMH92AML4h-203">
          <mxGeometry width="50" height="50" relative="1" as="geometry">
            <mxPoint y="25" as="sourcePoint" />
            <mxPoint x="140" y="25" as="targetPoint" />
          </mxGeometry>
        </mxCell>
        <mxCell id="WycvyNZacFiMH92AML4h-205" value="" style="triangle;whiteSpace=wrap;html=1;rotation=0;" vertex="1" parent="WycvyNZacFiMH92AML4h-203">
          <mxGeometry x="58" y="5" width="25" height="40" as="geometry" />
        </mxCell>
        <mxCell id="WycvyNZacFiMH92AML4h-206" value="&lt;font style=&quot;font-size: 70px;&quot;&gt;+&lt;/font&gt;" style="ellipse;whiteSpace=wrap;html=1;aspect=fixed;" vertex="1" parent="WycvyNZacFiMH92AML4h-203">
          <mxGeometry x="140" width="50" height="50" as="geometry" />
        </mxCell>
        <mxCell id="WycvyNZacFiMH92AML4h-257" value="b0" style="text;html=1;align=center;verticalAlign=middle;resizable=0;points=[];autosize=1;strokeColor=none;fillColor=none;" vertex="1" parent="WycvyNZacFiMH92AML4h-202">
          <mxGeometry x="-25" y="115" width="40" height="30" as="geometry" />
        </mxCell>
        <mxCell id="WycvyNZacFiMH92AML4h-229" style="edgeStyle=orthogonalEdgeStyle;rounded=0;orthogonalLoop=1;jettySize=auto;html=1;entryX=0.5;entryY=1;entryDx=0;entryDy=0;" edge="1" parent="WycvyNZacFiMH92AML4h-270" source="WycvyNZacFiMH92AML4h-208" target="WycvyNZacFiMH92AML4h-206">
          <mxGeometry relative="1" as="geometry" />
        </mxCell>
        <mxCell id="WycvyNZacFiMH92AML4h-208" value="&lt;font style=&quot;font-size: 30px;&quot;&gt;D&lt;/font&gt;" style="rounded=0;whiteSpace=wrap;html=1;" vertex="1" parent="WycvyNZacFiMH92AML4h-270">
          <mxGeometry x="200" y="135" width="50" height="40" as="geometry" />
        </mxCell>
        <mxCell id="WycvyNZacFiMH92AML4h-231" style="edgeStyle=orthogonalEdgeStyle;rounded=0;orthogonalLoop=1;jettySize=auto;html=1;entryX=0.5;entryY=1;entryDx=0;entryDy=0;" edge="1" parent="WycvyNZacFiMH92AML4h-270" source="WycvyNZacFiMH92AML4h-209" target="WycvyNZacFiMH92AML4h-191">
          <mxGeometry relative="1" as="geometry" />
        </mxCell>
        <mxCell id="WycvyNZacFiMH92AML4h-209" value="&lt;font style=&quot;font-size: 30px;&quot;&gt;D&lt;/font&gt;" style="rounded=0;whiteSpace=wrap;html=1;" vertex="1" parent="WycvyNZacFiMH92AML4h-270">
          <mxGeometry x="200" y="325" width="50" height="40" as="geometry" />
        </mxCell>
        <mxCell id="WycvyNZacFiMH92AML4h-230" style="edgeStyle=orthogonalEdgeStyle;rounded=0;orthogonalLoop=1;jettySize=auto;html=1;entryX=0.5;entryY=1;entryDx=0;entryDy=0;" edge="1" parent="WycvyNZacFiMH92AML4h-270" source="WycvyNZacFiMH92AML4h-191" target="WycvyNZacFiMH92AML4h-208">
          <mxGeometry relative="1" as="geometry" />
        </mxCell>
        <mxCell id="WycvyNZacFiMH92AML4h-232" style="edgeStyle=orthogonalEdgeStyle;rounded=0;orthogonalLoop=1;jettySize=auto;html=1;entryX=0.5;entryY=1;entryDx=0;entryDy=0;" edge="1" parent="WycvyNZacFiMH92AML4h-270" source="WycvyNZacFiMH92AML4h-200" target="WycvyNZacFiMH92AML4h-209">
          <mxGeometry relative="1" as="geometry" />
        </mxCell>
        <mxCell id="WycvyNZacFiMH92AML4h-243" value="" style="group" vertex="1" connectable="0" parent="WycvyNZacFiMH92AML4h-270">
          <mxGeometry x="250" y="40" width="160" height="40" as="geometry" />
        </mxCell>
        <mxCell id="WycvyNZacFiMH92AML4h-240" value="" style="endArrow=classic;html=1;rounded=0;" edge="1" parent="WycvyNZacFiMH92AML4h-243">
          <mxGeometry width="50" height="50" relative="1" as="geometry">
            <mxPoint x="160" y="20" as="sourcePoint" />
            <mxPoint y="20" as="targetPoint" />
          </mxGeometry>
        </mxCell>
        <mxCell id="WycvyNZacFiMH92AML4h-244" value="" style="group" vertex="1" connectable="0" parent="WycvyNZacFiMH92AML4h-270">
          <mxGeometry x="250" y="235" width="160" height="40" as="geometry" />
        </mxCell>
        <mxCell id="WycvyNZacFiMH92AML4h-245" value="" style="endArrow=classic;html=1;rounded=0;" edge="1" parent="WycvyNZacFiMH92AML4h-244">
          <mxGeometry width="50" height="50" relative="1" as="geometry">
            <mxPoint x="160" y="20" as="sourcePoint" />
            <mxPoint y="20" as="targetPoint" />
          </mxGeometry>
        </mxCell>
        <mxCell id="WycvyNZacFiMH92AML4h-246" value="" style="triangle;whiteSpace=wrap;html=1;rotation=180;" vertex="1" parent="WycvyNZacFiMH92AML4h-244">
          <mxGeometry x="70" width="25" height="40" as="geometry" />
        </mxCell>
        <mxCell id="WycvyNZacFiMH92AML4h-249" value="" style="group" vertex="1" connectable="0" parent="WycvyNZacFiMH92AML4h-270">
          <mxGeometry x="250" y="415" width="160" height="40" as="geometry" />
        </mxCell>
        <mxCell id="WycvyNZacFiMH92AML4h-250" value="" style="endArrow=classic;html=1;rounded=0;" edge="1" parent="WycvyNZacFiMH92AML4h-249">
          <mxGeometry width="50" height="50" relative="1" as="geometry">
            <mxPoint x="160" y="20" as="sourcePoint" />
            <mxPoint y="20" as="targetPoint" />
          </mxGeometry>
        </mxCell>
        <mxCell id="WycvyNZacFiMH92AML4h-251" value="" style="triangle;whiteSpace=wrap;html=1;rotation=180;" vertex="1" parent="WycvyNZacFiMH92AML4h-249">
          <mxGeometry x="70" width="25" height="40" as="geometry" />
        </mxCell>
        <mxCell id="WycvyNZacFiMH92AML4h-253" value="" style="endArrow=none;html=1;rounded=0;" edge="1" parent="WycvyNZacFiMH92AML4h-270">
          <mxGeometry width="50" height="50" relative="1" as="geometry">
            <mxPoint x="60" y="430" as="sourcePoint" />
            <mxPoint x="60" y="60" as="targetPoint" />
          </mxGeometry>
        </mxCell>
        <mxCell id="WycvyNZacFiMH92AML4h-265" value="a1" style="text;html=1;align=center;verticalAlign=middle;resizable=0;points=[];autosize=1;strokeColor=none;fillColor=none;" vertex="1" parent="WycvyNZacFiMH92AML4h-270">
          <mxGeometry x="315" y="275" width="40" height="30" as="geometry" />
        </mxCell>
        <mxCell id="WycvyNZacFiMH92AML4h-266" value="a2" style="text;html=1;align=center;verticalAlign=middle;resizable=0;points=[];autosize=1;strokeColor=none;fillColor=none;" vertex="1" parent="WycvyNZacFiMH92AML4h-270">
          <mxGeometry x="320" y="385" width="40" height="30" as="geometry" />
        </mxCell>
        <mxCell id="WycvyNZacFiMH92AML4h-267" value="&lt;font style=&quot;font-size: 16px;&quot;&gt;x[n]&lt;/font&gt;" style="text;html=1;align=center;verticalAlign=middle;resizable=0;points=[];autosize=1;strokeColor=none;fillColor=none;" vertex="1" parent="WycvyNZacFiMH92AML4h-270">
          <mxGeometry y="25" width="50" height="30" as="geometry" />
        </mxCell>
        <mxCell id="WycvyNZacFiMH92AML4h-268" value="&lt;font style=&quot;font-size: 18px;&quot;&gt;y[n]&lt;/font&gt;" style="text;html=1;align=center;verticalAlign=middle;resizable=0;points=[];autosize=1;strokeColor=none;fillColor=none;" vertex="1" parent="WycvyNZacFiMH92AML4h-270">
          <mxGeometry x="420" y="20" width="50" height="40" as="geometry" />
        </mxCell>
        <mxCell id="WycvyNZacFiMH92AML4h-269" value="" style="endArrow=none;html=1;rounded=0;" edge="1" parent="WycvyNZacFiMH92AML4h-270">
          <mxGeometry width="50" height="50" relative="1" as="geometry">
            <mxPoint x="409" y="435" as="sourcePoint" />
            <mxPoint x="409.17" y="60" as="targetPoint" />
          </mxGeometry>
        </mxCell>
        <mxCell id="WycvyNZacFiMH92AML4h-271" value="&lt;font style=&quot;font-size: 30px;&quot;&gt;X[n]&lt;/font&gt;" style="text;html=1;align=center;verticalAlign=middle;resizable=0;points=[];autosize=1;strokeColor=none;fillColor=none;" vertex="1" parent="1">
          <mxGeometry x="1300" y="-510" width="80" height="50" as="geometry" />
        </mxCell>
        <mxCell id="WycvyNZacFiMH92AML4h-155" value="" style="endArrow=classic;html=1;rounded=0;exitX=1;exitY=0.5;exitDx=0;exitDy=0;entryX=0.5;entryY=1;entryDx=0;entryDy=0;" edge="1" parent="1" source="WycvyNZacFiMH92AML4h-152" target="WycvyNZacFiMH92AML4h-148">
          <mxGeometry width="50" height="50" relative="1" as="geometry">
            <mxPoint x="2060" y="370" as="sourcePoint" />
            <mxPoint x="2190" y="345" as="targetPoint" />
            <Array as="points">
              <mxPoint x="2555" y="345" />
            </Array>
          </mxGeometry>
        </mxCell>
        <mxCell id="WycvyNZacFiMH92AML4h-77" value="&lt;font style=&quot;font-size: 35px;&quot;&gt;&lt;font style=&quot;font-size: 35px;&quot;&gt;IIR&lt;/font&gt;0&lt;/font&gt;" style="rounded=0;whiteSpace=wrap;html=1;" vertex="1" parent="1">
          <mxGeometry x="1910" y="-1279" width="298.24" height="130" as="geometry" />
        </mxCell>
        <mxCell id="WycvyNZacFiMH92AML4h-283" value="" style="group" vertex="1" connectable="0" parent="1">
          <mxGeometry x="620" y="1090" width="505" height="480" as="geometry" />
        </mxCell>
        <mxCell id="WycvyNZacFiMH92AML4h-284" value="" style="endArrow=classic;html=1;rounded=0;" edge="1" parent="WycvyNZacFiMH92AML4h-283">
          <mxGeometry width="50" height="50" relative="1" as="geometry">
            <mxPoint x="10" y="59.620000000000005" as="sourcePoint" />
            <mxPoint x="490" y="59.620000000000005" as="targetPoint" />
          </mxGeometry>
        </mxCell>
        <mxCell id="WycvyNZacFiMH92AML4h-285" value="" style="group;rotation=-90;" vertex="1" connectable="0" parent="WycvyNZacFiMH92AML4h-283">
          <mxGeometry x="130" y="145" width="110" height="200" as="geometry" />
        </mxCell>
        <mxCell id="WycvyNZacFiMH92AML4h-286" value="" style="group;rotation=-90;" vertex="1" connectable="0" parent="WycvyNZacFiMH92AML4h-285">
          <mxGeometry y="10" width="110" height="190" as="geometry" />
        </mxCell>
        <mxCell id="WycvyNZacFiMH92AML4h-287" value="" style="group" vertex="1" connectable="0" parent="WycvyNZacFiMH92AML4h-286">
          <mxGeometry x="-70" y="70" width="190" height="50" as="geometry" />
        </mxCell>
        <mxCell id="WycvyNZacFiMH92AML4h-288" value="" style="endArrow=classic;html=1;rounded=0;entryX=0.5;entryY=0;entryDx=0;entryDy=0;" edge="1" parent="WycvyNZacFiMH92AML4h-287">
          <mxGeometry width="50" height="50" relative="1" as="geometry">
            <mxPoint y="25" as="sourcePoint" />
            <mxPoint x="140" y="25" as="targetPoint" />
          </mxGeometry>
        </mxCell>
        <mxCell id="WycvyNZacFiMH92AML4h-289" value="" style="triangle;whiteSpace=wrap;html=1;rotation=0;" vertex="1" parent="WycvyNZacFiMH92AML4h-287">
          <mxGeometry x="58" y="5" width="25" height="40" as="geometry" />
        </mxCell>
        <mxCell id="WycvyNZacFiMH92AML4h-290" value="&lt;font style=&quot;font-size: 70px;&quot;&gt;+&lt;/font&gt;" style="ellipse;whiteSpace=wrap;html=1;aspect=fixed;" vertex="1" parent="WycvyNZacFiMH92AML4h-287">
          <mxGeometry x="140" width="50" height="50" as="geometry" />
        </mxCell>
        <mxCell id="WycvyNZacFiMH92AML4h-291" value="b1" style="text;html=1;align=center;verticalAlign=middle;resizable=0;points=[];autosize=1;strokeColor=none;fillColor=none;" vertex="1" parent="WycvyNZacFiMH92AML4h-286">
          <mxGeometry x="-27.5" y="115" width="40" height="30" as="geometry" />
        </mxCell>
        <mxCell id="WycvyNZacFiMH92AML4h-292" value="" style="group;rotation=-90;" vertex="1" connectable="0" parent="WycvyNZacFiMH92AML4h-283">
          <mxGeometry x="130" y="325" width="110" height="200" as="geometry" />
        </mxCell>
        <mxCell id="WycvyNZacFiMH92AML4h-293" value="" style="group;rotation=-90;" vertex="1" connectable="0" parent="WycvyNZacFiMH92AML4h-292">
          <mxGeometry y="10" width="110" height="190" as="geometry" />
        </mxCell>
        <mxCell id="WycvyNZacFiMH92AML4h-294" value="" style="group" vertex="1" connectable="0" parent="WycvyNZacFiMH92AML4h-293">
          <mxGeometry x="-70" y="70" width="190" height="50" as="geometry" />
        </mxCell>
        <mxCell id="WycvyNZacFiMH92AML4h-295" value="" style="endArrow=classic;html=1;rounded=0;entryX=0.5;entryY=0;entryDx=0;entryDy=0;" edge="1" parent="WycvyNZacFiMH92AML4h-294">
          <mxGeometry width="50" height="50" relative="1" as="geometry">
            <mxPoint y="25" as="sourcePoint" />
            <mxPoint x="140" y="25" as="targetPoint" />
          </mxGeometry>
        </mxCell>
        <mxCell id="WycvyNZacFiMH92AML4h-296" value="" style="triangle;whiteSpace=wrap;html=1;rotation=0;" vertex="1" parent="WycvyNZacFiMH92AML4h-294">
          <mxGeometry x="58" y="5" width="25" height="40" as="geometry" />
        </mxCell>
        <mxCell id="WycvyNZacFiMH92AML4h-297" value="&lt;font style=&quot;font-size: 70px;&quot;&gt;+&lt;/font&gt;" style="ellipse;whiteSpace=wrap;html=1;aspect=fixed;" vertex="1" parent="WycvyNZacFiMH92AML4h-294">
          <mxGeometry x="140" width="50" height="50" as="geometry" />
        </mxCell>
        <mxCell id="WycvyNZacFiMH92AML4h-298" value="b2" style="text;html=1;align=center;verticalAlign=middle;resizable=0;points=[];autosize=1;strokeColor=none;fillColor=none;" vertex="1" parent="WycvyNZacFiMH92AML4h-293">
          <mxGeometry x="-25" y="40" width="40" height="30" as="geometry" />
        </mxCell>
        <mxCell id="WycvyNZacFiMH92AML4h-299" value="" style="group;rotation=-90;" vertex="1" connectable="0" parent="WycvyNZacFiMH92AML4h-283">
          <mxGeometry x="130" y="-45" width="110" height="200" as="geometry" />
        </mxCell>
        <mxCell id="WycvyNZacFiMH92AML4h-300" value="" style="group;rotation=-90;" vertex="1" connectable="0" parent="WycvyNZacFiMH92AML4h-299">
          <mxGeometry y="10" width="110" height="190" as="geometry" />
        </mxCell>
        <mxCell id="WycvyNZacFiMH92AML4h-301" value="" style="group" vertex="1" connectable="0" parent="WycvyNZacFiMH92AML4h-300">
          <mxGeometry x="-70" y="70" width="190" height="50" as="geometry" />
        </mxCell>
        <mxCell id="WycvyNZacFiMH92AML4h-302" value="" style="endArrow=classic;html=1;rounded=0;entryX=0.5;entryY=0;entryDx=0;entryDy=0;" edge="1" parent="WycvyNZacFiMH92AML4h-301">
          <mxGeometry width="50" height="50" relative="1" as="geometry">
            <mxPoint y="25" as="sourcePoint" />
            <mxPoint x="140" y="25" as="targetPoint" />
          </mxGeometry>
        </mxCell>
        <mxCell id="WycvyNZacFiMH92AML4h-303" value="" style="triangle;whiteSpace=wrap;html=1;rotation=0;" vertex="1" parent="WycvyNZacFiMH92AML4h-301">
          <mxGeometry x="58" y="5" width="25" height="40" as="geometry" />
        </mxCell>
        <mxCell id="WycvyNZacFiMH92AML4h-304" value="&lt;font style=&quot;font-size: 70px;&quot;&gt;+&lt;/font&gt;" style="ellipse;whiteSpace=wrap;html=1;aspect=fixed;" vertex="1" parent="WycvyNZacFiMH92AML4h-301">
          <mxGeometry x="140" width="50" height="50" as="geometry" />
        </mxCell>
        <mxCell id="WycvyNZacFiMH92AML4h-305" value="b0" style="text;html=1;align=center;verticalAlign=middle;resizable=0;points=[];autosize=1;strokeColor=none;fillColor=none;" vertex="1" parent="WycvyNZacFiMH92AML4h-300">
          <mxGeometry x="-25" y="115" width="40" height="30" as="geometry" />
        </mxCell>
        <mxCell id="WycvyNZacFiMH92AML4h-306" style="edgeStyle=orthogonalEdgeStyle;rounded=0;orthogonalLoop=1;jettySize=auto;html=1;entryX=0.5;entryY=1;entryDx=0;entryDy=0;" edge="1" parent="WycvyNZacFiMH92AML4h-283" source="WycvyNZacFiMH92AML4h-307" target="WycvyNZacFiMH92AML4h-304">
          <mxGeometry relative="1" as="geometry" />
        </mxCell>
        <mxCell id="WycvyNZacFiMH92AML4h-307" value="&lt;font style=&quot;font-size: 30px;&quot;&gt;D&lt;/font&gt;" style="rounded=0;whiteSpace=wrap;html=1;" vertex="1" parent="WycvyNZacFiMH92AML4h-283">
          <mxGeometry x="200" y="135" width="50" height="40" as="geometry" />
        </mxCell>
        <mxCell id="WycvyNZacFiMH92AML4h-308" style="edgeStyle=orthogonalEdgeStyle;rounded=0;orthogonalLoop=1;jettySize=auto;html=1;entryX=0.5;entryY=1;entryDx=0;entryDy=0;" edge="1" parent="WycvyNZacFiMH92AML4h-283" source="WycvyNZacFiMH92AML4h-309" target="WycvyNZacFiMH92AML4h-290">
          <mxGeometry relative="1" as="geometry" />
        </mxCell>
        <mxCell id="WycvyNZacFiMH92AML4h-309" value="&lt;font style=&quot;font-size: 30px;&quot;&gt;D&lt;/font&gt;" style="rounded=0;whiteSpace=wrap;html=1;" vertex="1" parent="WycvyNZacFiMH92AML4h-283">
          <mxGeometry x="200" y="325" width="50" height="40" as="geometry" />
        </mxCell>
        <mxCell id="WycvyNZacFiMH92AML4h-310" style="edgeStyle=orthogonalEdgeStyle;rounded=0;orthogonalLoop=1;jettySize=auto;html=1;entryX=0.5;entryY=1;entryDx=0;entryDy=0;" edge="1" parent="WycvyNZacFiMH92AML4h-283" source="WycvyNZacFiMH92AML4h-290" target="WycvyNZacFiMH92AML4h-307">
          <mxGeometry relative="1" as="geometry" />
        </mxCell>
        <mxCell id="WycvyNZacFiMH92AML4h-311" style="edgeStyle=orthogonalEdgeStyle;rounded=0;orthogonalLoop=1;jettySize=auto;html=1;entryX=0.5;entryY=1;entryDx=0;entryDy=0;" edge="1" parent="WycvyNZacFiMH92AML4h-283" source="WycvyNZacFiMH92AML4h-297" target="WycvyNZacFiMH92AML4h-309">
          <mxGeometry relative="1" as="geometry" />
        </mxCell>
        <mxCell id="WycvyNZacFiMH92AML4h-312" value="" style="group" vertex="1" connectable="0" parent="WycvyNZacFiMH92AML4h-283">
          <mxGeometry x="250" y="40" width="160" height="40" as="geometry" />
        </mxCell>
        <mxCell id="WycvyNZacFiMH92AML4h-313" value="" style="endArrow=classic;html=1;rounded=0;" edge="1" parent="WycvyNZacFiMH92AML4h-312">
          <mxGeometry width="50" height="50" relative="1" as="geometry">
            <mxPoint x="160" y="20" as="sourcePoint" />
            <mxPoint y="20" as="targetPoint" />
          </mxGeometry>
        </mxCell>
        <mxCell id="WycvyNZacFiMH92AML4h-314" value="" style="group" vertex="1" connectable="0" parent="WycvyNZacFiMH92AML4h-283">
          <mxGeometry x="250" y="235" width="160" height="40" as="geometry" />
        </mxCell>
        <mxCell id="WycvyNZacFiMH92AML4h-315" value="" style="endArrow=classic;html=1;rounded=0;" edge="1" parent="WycvyNZacFiMH92AML4h-314">
          <mxGeometry width="50" height="50" relative="1" as="geometry">
            <mxPoint x="160" y="20" as="sourcePoint" />
            <mxPoint y="20" as="targetPoint" />
          </mxGeometry>
        </mxCell>
        <mxCell id="WycvyNZacFiMH92AML4h-316" value="" style="triangle;whiteSpace=wrap;html=1;rotation=180;" vertex="1" parent="WycvyNZacFiMH92AML4h-314">
          <mxGeometry x="70" width="25" height="40" as="geometry" />
        </mxCell>
        <mxCell id="WycvyNZacFiMH92AML4h-317" value="" style="group" vertex="1" connectable="0" parent="WycvyNZacFiMH92AML4h-283">
          <mxGeometry x="250" y="415" width="160" height="40" as="geometry" />
        </mxCell>
        <mxCell id="WycvyNZacFiMH92AML4h-318" value="" style="endArrow=classic;html=1;rounded=0;" edge="1" parent="WycvyNZacFiMH92AML4h-317">
          <mxGeometry width="50" height="50" relative="1" as="geometry">
            <mxPoint x="160" y="20" as="sourcePoint" />
            <mxPoint y="20" as="targetPoint" />
          </mxGeometry>
        </mxCell>
        <mxCell id="WycvyNZacFiMH92AML4h-319" value="" style="triangle;whiteSpace=wrap;html=1;rotation=180;" vertex="1" parent="WycvyNZacFiMH92AML4h-317">
          <mxGeometry x="70" width="25" height="40" as="geometry" />
        </mxCell>
        <mxCell id="WycvyNZacFiMH92AML4h-320" value="" style="endArrow=none;html=1;rounded=0;" edge="1" parent="WycvyNZacFiMH92AML4h-283">
          <mxGeometry width="50" height="50" relative="1" as="geometry">
            <mxPoint x="60" y="430" as="sourcePoint" />
            <mxPoint x="60" y="60" as="targetPoint" />
          </mxGeometry>
        </mxCell>
        <mxCell id="WycvyNZacFiMH92AML4h-321" value="a1" style="text;html=1;align=center;verticalAlign=middle;resizable=0;points=[];autosize=1;strokeColor=none;fillColor=none;" vertex="1" parent="WycvyNZacFiMH92AML4h-283">
          <mxGeometry x="315" y="275" width="40" height="30" as="geometry" />
        </mxCell>
        <mxCell id="WycvyNZacFiMH92AML4h-322" value="a2" style="text;html=1;align=center;verticalAlign=middle;resizable=0;points=[];autosize=1;strokeColor=none;fillColor=none;" vertex="1" parent="WycvyNZacFiMH92AML4h-283">
          <mxGeometry x="320" y="385" width="40" height="30" as="geometry" />
        </mxCell>
        <mxCell id="WycvyNZacFiMH92AML4h-323" value="&lt;font style=&quot;font-size: 16px;&quot;&gt;x[n]&lt;/font&gt;" style="text;html=1;align=center;verticalAlign=middle;resizable=0;points=[];autosize=1;strokeColor=none;fillColor=none;" vertex="1" parent="WycvyNZacFiMH92AML4h-283">
          <mxGeometry y="25" width="50" height="30" as="geometry" />
        </mxCell>
        <mxCell id="WycvyNZacFiMH92AML4h-324" value="&lt;font style=&quot;font-size: 18px;&quot;&gt;y[n]&lt;/font&gt;" style="text;html=1;align=center;verticalAlign=middle;resizable=0;points=[];autosize=1;strokeColor=none;fillColor=none;" vertex="1" parent="WycvyNZacFiMH92AML4h-283">
          <mxGeometry x="430" y="20" width="50" height="40" as="geometry" />
        </mxCell>
        <mxCell id="WycvyNZacFiMH92AML4h-325" value="" style="endArrow=none;html=1;rounded=0;" edge="1" parent="WycvyNZacFiMH92AML4h-283">
          <mxGeometry width="50" height="50" relative="1" as="geometry">
            <mxPoint x="409" y="435" as="sourcePoint" />
            <mxPoint x="409.17" y="60" as="targetPoint" />
          </mxGeometry>
        </mxCell>
        <mxCell id="WycvyNZacFiMH92AML4h-326" value="" style="group" vertex="1" connectable="0" parent="1">
          <mxGeometry x="1580" y="1090" width="505" height="480" as="geometry" />
        </mxCell>
        <mxCell id="WycvyNZacFiMH92AML4h-327" value="" style="endArrow=classic;html=1;rounded=0;" edge="1" parent="WycvyNZacFiMH92AML4h-326">
          <mxGeometry width="50" height="50" relative="1" as="geometry">
            <mxPoint x="10" y="59.620000000000005" as="sourcePoint" />
            <mxPoint x="490" y="59.620000000000005" as="targetPoint" />
          </mxGeometry>
        </mxCell>
        <mxCell id="WycvyNZacFiMH92AML4h-328" value="" style="group;rotation=-90;" vertex="1" connectable="0" parent="WycvyNZacFiMH92AML4h-326">
          <mxGeometry x="130" y="145" width="110" height="200" as="geometry" />
        </mxCell>
        <mxCell id="WycvyNZacFiMH92AML4h-329" value="" style="group;rotation=-90;" vertex="1" connectable="0" parent="WycvyNZacFiMH92AML4h-328">
          <mxGeometry y="10" width="110" height="190" as="geometry" />
        </mxCell>
        <mxCell id="WycvyNZacFiMH92AML4h-330" value="" style="group" vertex="1" connectable="0" parent="WycvyNZacFiMH92AML4h-329">
          <mxGeometry x="-70" y="70" width="190" height="50" as="geometry" />
        </mxCell>
        <mxCell id="WycvyNZacFiMH92AML4h-331" value="" style="endArrow=classic;html=1;rounded=0;entryX=0.5;entryY=0;entryDx=0;entryDy=0;" edge="1" parent="WycvyNZacFiMH92AML4h-330">
          <mxGeometry width="50" height="50" relative="1" as="geometry">
            <mxPoint y="25" as="sourcePoint" />
            <mxPoint x="140" y="25" as="targetPoint" />
          </mxGeometry>
        </mxCell>
        <mxCell id="WycvyNZacFiMH92AML4h-332" value="" style="triangle;whiteSpace=wrap;html=1;rotation=0;" vertex="1" parent="WycvyNZacFiMH92AML4h-330">
          <mxGeometry x="58" y="5" width="25" height="40" as="geometry" />
        </mxCell>
        <mxCell id="WycvyNZacFiMH92AML4h-333" value="&lt;font style=&quot;font-size: 70px;&quot;&gt;+&lt;/font&gt;" style="ellipse;whiteSpace=wrap;html=1;aspect=fixed;" vertex="1" parent="WycvyNZacFiMH92AML4h-330">
          <mxGeometry x="140" width="50" height="50" as="geometry" />
        </mxCell>
        <mxCell id="WycvyNZacFiMH92AML4h-334" value="b1" style="text;html=1;align=center;verticalAlign=middle;resizable=0;points=[];autosize=1;strokeColor=none;fillColor=none;" vertex="1" parent="WycvyNZacFiMH92AML4h-329">
          <mxGeometry x="-27.5" y="115" width="40" height="30" as="geometry" />
        </mxCell>
        <mxCell id="WycvyNZacFiMH92AML4h-335" value="" style="group;rotation=-90;" vertex="1" connectable="0" parent="WycvyNZacFiMH92AML4h-326">
          <mxGeometry x="130" y="325" width="110" height="200" as="geometry" />
        </mxCell>
        <mxCell id="WycvyNZacFiMH92AML4h-336" value="" style="group;rotation=-90;" vertex="1" connectable="0" parent="WycvyNZacFiMH92AML4h-335">
          <mxGeometry y="10" width="110" height="190" as="geometry" />
        </mxCell>
        <mxCell id="WycvyNZacFiMH92AML4h-337" value="" style="group" vertex="1" connectable="0" parent="WycvyNZacFiMH92AML4h-336">
          <mxGeometry x="-70" y="70" width="190" height="50" as="geometry" />
        </mxCell>
        <mxCell id="WycvyNZacFiMH92AML4h-338" value="" style="endArrow=classic;html=1;rounded=0;entryX=0.5;entryY=0;entryDx=0;entryDy=0;" edge="1" parent="WycvyNZacFiMH92AML4h-337">
          <mxGeometry width="50" height="50" relative="1" as="geometry">
            <mxPoint y="25" as="sourcePoint" />
            <mxPoint x="140" y="25" as="targetPoint" />
          </mxGeometry>
        </mxCell>
        <mxCell id="WycvyNZacFiMH92AML4h-339" value="" style="triangle;whiteSpace=wrap;html=1;rotation=0;" vertex="1" parent="WycvyNZacFiMH92AML4h-337">
          <mxGeometry x="58" y="5" width="25" height="40" as="geometry" />
        </mxCell>
        <mxCell id="WycvyNZacFiMH92AML4h-340" value="&lt;font style=&quot;font-size: 70px;&quot;&gt;+&lt;/font&gt;" style="ellipse;whiteSpace=wrap;html=1;aspect=fixed;" vertex="1" parent="WycvyNZacFiMH92AML4h-337">
          <mxGeometry x="140" width="50" height="50" as="geometry" />
        </mxCell>
        <mxCell id="WycvyNZacFiMH92AML4h-341" value="b2" style="text;html=1;align=center;verticalAlign=middle;resizable=0;points=[];autosize=1;strokeColor=none;fillColor=none;" vertex="1" parent="WycvyNZacFiMH92AML4h-336">
          <mxGeometry x="-25" y="40" width="40" height="30" as="geometry" />
        </mxCell>
        <mxCell id="WycvyNZacFiMH92AML4h-342" value="" style="group;rotation=-90;" vertex="1" connectable="0" parent="WycvyNZacFiMH92AML4h-326">
          <mxGeometry x="130" y="-45" width="110" height="200" as="geometry" />
        </mxCell>
        <mxCell id="WycvyNZacFiMH92AML4h-343" value="" style="group;rotation=-90;" vertex="1" connectable="0" parent="WycvyNZacFiMH92AML4h-342">
          <mxGeometry y="10" width="110" height="190" as="geometry" />
        </mxCell>
        <mxCell id="WycvyNZacFiMH92AML4h-344" value="" style="group" vertex="1" connectable="0" parent="WycvyNZacFiMH92AML4h-343">
          <mxGeometry x="-70" y="70" width="190" height="50" as="geometry" />
        </mxCell>
        <mxCell id="WycvyNZacFiMH92AML4h-345" value="" style="endArrow=classic;html=1;rounded=0;entryX=0.5;entryY=0;entryDx=0;entryDy=0;" edge="1" parent="WycvyNZacFiMH92AML4h-344">
          <mxGeometry width="50" height="50" relative="1" as="geometry">
            <mxPoint y="25" as="sourcePoint" />
            <mxPoint x="140" y="25" as="targetPoint" />
          </mxGeometry>
        </mxCell>
        <mxCell id="WycvyNZacFiMH92AML4h-346" value="" style="triangle;whiteSpace=wrap;html=1;rotation=0;" vertex="1" parent="WycvyNZacFiMH92AML4h-344">
          <mxGeometry x="58" y="5" width="25" height="40" as="geometry" />
        </mxCell>
        <mxCell id="WycvyNZacFiMH92AML4h-347" value="&lt;font style=&quot;font-size: 70px;&quot;&gt;+&lt;/font&gt;" style="ellipse;whiteSpace=wrap;html=1;aspect=fixed;" vertex="1" parent="WycvyNZacFiMH92AML4h-344">
          <mxGeometry x="140" width="50" height="50" as="geometry" />
        </mxCell>
        <mxCell id="WycvyNZacFiMH92AML4h-348" value="b0" style="text;html=1;align=center;verticalAlign=middle;resizable=0;points=[];autosize=1;strokeColor=none;fillColor=none;" vertex="1" parent="WycvyNZacFiMH92AML4h-343">
          <mxGeometry x="-25" y="115" width="40" height="30" as="geometry" />
        </mxCell>
        <mxCell id="WycvyNZacFiMH92AML4h-349" style="edgeStyle=orthogonalEdgeStyle;rounded=0;orthogonalLoop=1;jettySize=auto;html=1;entryX=0.5;entryY=1;entryDx=0;entryDy=0;" edge="1" parent="WycvyNZacFiMH92AML4h-326" source="WycvyNZacFiMH92AML4h-350" target="WycvyNZacFiMH92AML4h-347">
          <mxGeometry relative="1" as="geometry" />
        </mxCell>
        <mxCell id="WycvyNZacFiMH92AML4h-350" value="&lt;font style=&quot;font-size: 30px;&quot;&gt;D&lt;/font&gt;" style="rounded=0;whiteSpace=wrap;html=1;" vertex="1" parent="WycvyNZacFiMH92AML4h-326">
          <mxGeometry x="200" y="135" width="50" height="40" as="geometry" />
        </mxCell>
        <mxCell id="WycvyNZacFiMH92AML4h-351" style="edgeStyle=orthogonalEdgeStyle;rounded=0;orthogonalLoop=1;jettySize=auto;html=1;entryX=0.5;entryY=1;entryDx=0;entryDy=0;" edge="1" parent="WycvyNZacFiMH92AML4h-326" source="WycvyNZacFiMH92AML4h-352" target="WycvyNZacFiMH92AML4h-333">
          <mxGeometry relative="1" as="geometry" />
        </mxCell>
        <mxCell id="WycvyNZacFiMH92AML4h-352" value="&lt;font style=&quot;font-size: 30px;&quot;&gt;D&lt;/font&gt;" style="rounded=0;whiteSpace=wrap;html=1;" vertex="1" parent="WycvyNZacFiMH92AML4h-326">
          <mxGeometry x="200" y="325" width="50" height="40" as="geometry" />
        </mxCell>
        <mxCell id="WycvyNZacFiMH92AML4h-353" style="edgeStyle=orthogonalEdgeStyle;rounded=0;orthogonalLoop=1;jettySize=auto;html=1;entryX=0.5;entryY=1;entryDx=0;entryDy=0;" edge="1" parent="WycvyNZacFiMH92AML4h-326" source="WycvyNZacFiMH92AML4h-333" target="WycvyNZacFiMH92AML4h-350">
          <mxGeometry relative="1" as="geometry" />
        </mxCell>
        <mxCell id="WycvyNZacFiMH92AML4h-354" style="edgeStyle=orthogonalEdgeStyle;rounded=0;orthogonalLoop=1;jettySize=auto;html=1;entryX=0.5;entryY=1;entryDx=0;entryDy=0;" edge="1" parent="WycvyNZacFiMH92AML4h-326" source="WycvyNZacFiMH92AML4h-340" target="WycvyNZacFiMH92AML4h-352">
          <mxGeometry relative="1" as="geometry" />
        </mxCell>
        <mxCell id="WycvyNZacFiMH92AML4h-355" value="" style="group" vertex="1" connectable="0" parent="WycvyNZacFiMH92AML4h-326">
          <mxGeometry x="250" y="40" width="160" height="40" as="geometry" />
        </mxCell>
        <mxCell id="WycvyNZacFiMH92AML4h-356" value="" style="endArrow=classic;html=1;rounded=0;" edge="1" parent="WycvyNZacFiMH92AML4h-355">
          <mxGeometry width="50" height="50" relative="1" as="geometry">
            <mxPoint x="160" y="20" as="sourcePoint" />
            <mxPoint y="20" as="targetPoint" />
          </mxGeometry>
        </mxCell>
        <mxCell id="WycvyNZacFiMH92AML4h-357" value="" style="group" vertex="1" connectable="0" parent="WycvyNZacFiMH92AML4h-326">
          <mxGeometry x="250" y="235" width="160" height="40" as="geometry" />
        </mxCell>
        <mxCell id="WycvyNZacFiMH92AML4h-358" value="" style="endArrow=classic;html=1;rounded=0;" edge="1" parent="WycvyNZacFiMH92AML4h-357">
          <mxGeometry width="50" height="50" relative="1" as="geometry">
            <mxPoint x="160" y="20" as="sourcePoint" />
            <mxPoint y="20" as="targetPoint" />
          </mxGeometry>
        </mxCell>
        <mxCell id="WycvyNZacFiMH92AML4h-359" value="" style="triangle;whiteSpace=wrap;html=1;rotation=180;" vertex="1" parent="WycvyNZacFiMH92AML4h-357">
          <mxGeometry x="70" width="25" height="40" as="geometry" />
        </mxCell>
        <mxCell id="WycvyNZacFiMH92AML4h-360" value="" style="group" vertex="1" connectable="0" parent="WycvyNZacFiMH92AML4h-326">
          <mxGeometry x="250" y="415" width="160" height="40" as="geometry" />
        </mxCell>
        <mxCell id="WycvyNZacFiMH92AML4h-361" value="" style="endArrow=classic;html=1;rounded=0;" edge="1" parent="WycvyNZacFiMH92AML4h-360">
          <mxGeometry width="50" height="50" relative="1" as="geometry">
            <mxPoint x="160" y="20" as="sourcePoint" />
            <mxPoint y="20" as="targetPoint" />
          </mxGeometry>
        </mxCell>
        <mxCell id="WycvyNZacFiMH92AML4h-362" value="" style="triangle;whiteSpace=wrap;html=1;rotation=180;" vertex="1" parent="WycvyNZacFiMH92AML4h-360">
          <mxGeometry x="70" width="25" height="40" as="geometry" />
        </mxCell>
        <mxCell id="WycvyNZacFiMH92AML4h-363" value="" style="endArrow=none;html=1;rounded=0;" edge="1" parent="WycvyNZacFiMH92AML4h-326">
          <mxGeometry width="50" height="50" relative="1" as="geometry">
            <mxPoint x="60" y="430" as="sourcePoint" />
            <mxPoint x="60" y="60" as="targetPoint" />
          </mxGeometry>
        </mxCell>
        <mxCell id="WycvyNZacFiMH92AML4h-364" value="a1" style="text;html=1;align=center;verticalAlign=middle;resizable=0;points=[];autosize=1;strokeColor=none;fillColor=none;" vertex="1" parent="WycvyNZacFiMH92AML4h-326">
          <mxGeometry x="315" y="275" width="40" height="30" as="geometry" />
        </mxCell>
        <mxCell id="WycvyNZacFiMH92AML4h-365" value="a2" style="text;html=1;align=center;verticalAlign=middle;resizable=0;points=[];autosize=1;strokeColor=none;fillColor=none;" vertex="1" parent="WycvyNZacFiMH92AML4h-326">
          <mxGeometry x="320" y="385" width="40" height="30" as="geometry" />
        </mxCell>
        <mxCell id="WycvyNZacFiMH92AML4h-366" value="&lt;font style=&quot;font-size: 16px;&quot;&gt;x[n]&lt;/font&gt;" style="text;html=1;align=center;verticalAlign=middle;resizable=0;points=[];autosize=1;strokeColor=none;fillColor=none;" vertex="1" parent="WycvyNZacFiMH92AML4h-326">
          <mxGeometry y="25" width="50" height="30" as="geometry" />
        </mxCell>
        <mxCell id="WycvyNZacFiMH92AML4h-367" value="&lt;font style=&quot;font-size: 18px;&quot;&gt;y[n]&lt;/font&gt;" style="text;html=1;align=center;verticalAlign=middle;resizable=0;points=[];autosize=1;strokeColor=none;fillColor=none;" vertex="1" parent="WycvyNZacFiMH92AML4h-326">
          <mxGeometry x="421" y="20" width="50" height="40" as="geometry" />
        </mxCell>
        <mxCell id="WycvyNZacFiMH92AML4h-368" value="" style="endArrow=none;html=1;rounded=0;" edge="1" parent="WycvyNZacFiMH92AML4h-326">
          <mxGeometry width="50" height="50" relative="1" as="geometry">
            <mxPoint x="409" y="435" as="sourcePoint" />
            <mxPoint x="409.17" y="60" as="targetPoint" />
          </mxGeometry>
        </mxCell>
        <mxCell id="WycvyNZacFiMH92AML4h-369" value="" style="group" vertex="1" connectable="0" parent="1">
          <mxGeometry x="3450" y="-1340" width="440" height="190" as="geometry" />
        </mxCell>
        <mxCell id="WycvyNZacFiMH92AML4h-370" value="" style="group" vertex="1" connectable="0" parent="WycvyNZacFiMH92AML4h-369">
          <mxGeometry y="60" width="440" height="130" as="geometry" />
        </mxCell>
        <mxCell id="WycvyNZacFiMH92AML4h-371" value="" style="endArrow=classic;html=1;rounded=0;entryX=0;entryY=0.5;entryDx=0;entryDy=0;" edge="1" parent="WycvyNZacFiMH92AML4h-370" target="WycvyNZacFiMH92AML4h-428">
          <mxGeometry width="50" height="50" relative="1" as="geometry">
            <mxPoint y="65" as="sourcePoint" />
            <mxPoint x="366.4464993394979" y="90" as="targetPoint" />
          </mxGeometry>
        </mxCell>
        <mxCell id="WycvyNZacFiMH92AML4h-372" value="" style="endArrow=classic;html=1;rounded=0;entryX=0.5;entryY=0;entryDx=0;entryDy=0;" edge="1" parent="WycvyNZacFiMH92AML4h-369" target="WycvyNZacFiMH92AML4h-428">
          <mxGeometry width="50" height="50" relative="1" as="geometry">
            <mxPoint x="489" y="-10" as="sourcePoint" />
            <mxPoint x="450" y="110" as="targetPoint" />
          </mxGeometry>
        </mxCell>
        <mxCell id="WycvyNZacFiMH92AML4h-373" value="" style="endArrow=classic;html=1;rounded=0;exitX=1;exitY=0.5;exitDx=0;exitDy=0;entryX=0.5;entryY=0;entryDx=0;entryDy=0;" edge="1" parent="1" source="WycvyNZacFiMH92AML4h-428" target="WycvyNZacFiMH92AML4h-418">
          <mxGeometry width="50" height="50" relative="1" as="geometry">
            <mxPoint x="3940" y="-1190" as="sourcePoint" />
            <mxPoint x="4070" y="-1215" as="targetPoint" />
            <Array as="points">
              <mxPoint x="4435" y="-1215" />
            </Array>
          </mxGeometry>
        </mxCell>
        <mxCell id="WycvyNZacFiMH92AML4h-374" value="" style="group" vertex="1" connectable="0" parent="1">
          <mxGeometry x="3650" y="-1120" width="620" height="190" as="geometry" />
        </mxCell>
        <mxCell id="WycvyNZacFiMH92AML4h-375" value="" style="group" vertex="1" connectable="0" parent="WycvyNZacFiMH92AML4h-374">
          <mxGeometry width="440" height="190" as="geometry" />
        </mxCell>
        <mxCell id="WycvyNZacFiMH92AML4h-376" value="" style="group" vertex="1" connectable="0" parent="WycvyNZacFiMH92AML4h-375">
          <mxGeometry y="60" width="440" height="130" as="geometry" />
        </mxCell>
        <mxCell id="WycvyNZacFiMH92AML4h-377" value="&lt;font style=&quot;font-size: 30px;&quot;&gt;&lt;font style=&quot;font-size: 30px;&quot;&gt;FIR&lt;/font&gt;&lt;font style=&quot;font-size: 30px;&quot;&gt;1&lt;/font&gt;&lt;/font&gt;" style="rounded=0;whiteSpace=wrap;html=1;" vertex="1" parent="WycvyNZacFiMH92AML4h-376">
          <mxGeometry x="141.76" width="298.24" height="130" as="geometry" />
        </mxCell>
        <mxCell id="WycvyNZacFiMH92AML4h-378" value="" style="endArrow=classic;html=1;rounded=0;entryX=0;entryY=0.5;entryDx=0;entryDy=0;" edge="1" parent="WycvyNZacFiMH92AML4h-376" target="WycvyNZacFiMH92AML4h-377">
          <mxGeometry width="50" height="50" relative="1" as="geometry">
            <mxPoint x="-200" y="65" as="sourcePoint" />
            <mxPoint x="366.4464993394979" y="90" as="targetPoint" />
          </mxGeometry>
        </mxCell>
        <mxCell id="WycvyNZacFiMH92AML4h-379" value="" style="endArrow=classic;html=1;rounded=0;entryX=0.5;entryY=0;entryDx=0;entryDy=0;" edge="1" parent="WycvyNZacFiMH92AML4h-375" target="WycvyNZacFiMH92AML4h-377">
          <mxGeometry width="50" height="50" relative="1" as="geometry">
            <mxPoint x="291" as="sourcePoint" />
            <mxPoint x="450" y="110" as="targetPoint" />
          </mxGeometry>
        </mxCell>
        <mxCell id="WycvyNZacFiMH92AML4h-380" value="" style="endArrow=classic;html=1;rounded=0;exitX=1;exitY=0.5;exitDx=0;exitDy=0;" edge="1" parent="WycvyNZacFiMH92AML4h-374" source="WycvyNZacFiMH92AML4h-377">
          <mxGeometry width="50" height="50" relative="1" as="geometry">
            <mxPoint x="490" y="150" as="sourcePoint" />
            <mxPoint x="780" y="125" as="targetPoint" />
          </mxGeometry>
        </mxCell>
        <mxCell id="WycvyNZacFiMH92AML4h-381" value="" style="group" vertex="1" connectable="0" parent="1">
          <mxGeometry x="3650" y="-900" width="620" height="190" as="geometry" />
        </mxCell>
        <mxCell id="WycvyNZacFiMH92AML4h-382" value="" style="group" vertex="1" connectable="0" parent="WycvyNZacFiMH92AML4h-381">
          <mxGeometry width="440" height="190" as="geometry" />
        </mxCell>
        <mxCell id="WycvyNZacFiMH92AML4h-383" value="" style="group" vertex="1" connectable="0" parent="WycvyNZacFiMH92AML4h-382">
          <mxGeometry y="60" width="440" height="130" as="geometry" />
        </mxCell>
        <mxCell id="WycvyNZacFiMH92AML4h-384" value="&lt;font style=&quot;font-size: 30px;&quot;&gt;&lt;font style=&quot;font-size: 30px;&quot;&gt;FIR&lt;/font&gt;&lt;font style=&quot;font-size: 30px;&quot;&gt;2&lt;/font&gt;&lt;/font&gt;" style="rounded=0;whiteSpace=wrap;html=1;" vertex="1" parent="WycvyNZacFiMH92AML4h-383">
          <mxGeometry x="141.76" width="298.24" height="130" as="geometry" />
        </mxCell>
        <mxCell id="WycvyNZacFiMH92AML4h-385" value="" style="endArrow=classic;html=1;rounded=0;entryX=0;entryY=0.5;entryDx=0;entryDy=0;" edge="1" parent="WycvyNZacFiMH92AML4h-383" target="WycvyNZacFiMH92AML4h-384">
          <mxGeometry width="50" height="50" relative="1" as="geometry">
            <mxPoint x="-200" y="65" as="sourcePoint" />
            <mxPoint x="366.4464993394979" y="90" as="targetPoint" />
          </mxGeometry>
        </mxCell>
        <mxCell id="WycvyNZacFiMH92AML4h-386" value="" style="endArrow=classic;html=1;rounded=0;entryX=0.5;entryY=0;entryDx=0;entryDy=0;" edge="1" parent="WycvyNZacFiMH92AML4h-382" target="WycvyNZacFiMH92AML4h-384">
          <mxGeometry width="50" height="50" relative="1" as="geometry">
            <mxPoint x="291" as="sourcePoint" />
            <mxPoint x="450" y="110" as="targetPoint" />
          </mxGeometry>
        </mxCell>
        <mxCell id="WycvyNZacFiMH92AML4h-387" value="" style="endArrow=classic;html=1;rounded=0;exitX=1;exitY=0.5;exitDx=0;exitDy=0;" edge="1" parent="WycvyNZacFiMH92AML4h-381" source="WycvyNZacFiMH92AML4h-384">
          <mxGeometry width="50" height="50" relative="1" as="geometry">
            <mxPoint x="490" y="150" as="sourcePoint" />
            <mxPoint x="780" y="125" as="targetPoint" />
          </mxGeometry>
        </mxCell>
        <mxCell id="WycvyNZacFiMH92AML4h-388" value="" style="group" vertex="1" connectable="0" parent="1">
          <mxGeometry x="3650" y="-680" width="620" height="190" as="geometry" />
        </mxCell>
        <mxCell id="WycvyNZacFiMH92AML4h-389" value="" style="group" vertex="1" connectable="0" parent="WycvyNZacFiMH92AML4h-388">
          <mxGeometry width="440" height="190" as="geometry" />
        </mxCell>
        <mxCell id="WycvyNZacFiMH92AML4h-390" value="" style="group" vertex="1" connectable="0" parent="WycvyNZacFiMH92AML4h-389">
          <mxGeometry y="60" width="440" height="130" as="geometry" />
        </mxCell>
        <mxCell id="WycvyNZacFiMH92AML4h-391" value="&lt;font style=&quot;font-size: 30px;&quot;&gt;&lt;font style=&quot;font-size: 30px;&quot;&gt;FIR&lt;/font&gt;&lt;font style=&quot;font-size: 30px;&quot;&gt;3&lt;/font&gt;&lt;/font&gt;" style="rounded=0;whiteSpace=wrap;html=1;" vertex="1" parent="WycvyNZacFiMH92AML4h-390">
          <mxGeometry x="141.76" width="298.24" height="130" as="geometry" />
        </mxCell>
        <mxCell id="WycvyNZacFiMH92AML4h-392" value="" style="endArrow=classic;html=1;rounded=0;entryX=0;entryY=0.5;entryDx=0;entryDy=0;" edge="1" parent="WycvyNZacFiMH92AML4h-390" target="WycvyNZacFiMH92AML4h-391">
          <mxGeometry width="50" height="50" relative="1" as="geometry">
            <mxPoint x="-200" y="65" as="sourcePoint" />
            <mxPoint x="366.4464993394979" y="90" as="targetPoint" />
          </mxGeometry>
        </mxCell>
        <mxCell id="WycvyNZacFiMH92AML4h-393" value="" style="endArrow=classic;html=1;rounded=0;entryX=0.5;entryY=0;entryDx=0;entryDy=0;" edge="1" parent="WycvyNZacFiMH92AML4h-389" target="WycvyNZacFiMH92AML4h-391">
          <mxGeometry width="50" height="50" relative="1" as="geometry">
            <mxPoint x="291" as="sourcePoint" />
            <mxPoint x="450" y="110" as="targetPoint" />
          </mxGeometry>
        </mxCell>
        <mxCell id="WycvyNZacFiMH92AML4h-394" value="" style="endArrow=classic;html=1;rounded=0;exitX=1;exitY=0.5;exitDx=0;exitDy=0;" edge="1" parent="WycvyNZacFiMH92AML4h-388" source="WycvyNZacFiMH92AML4h-391">
          <mxGeometry width="50" height="50" relative="1" as="geometry">
            <mxPoint x="490" y="150" as="sourcePoint" />
            <mxPoint x="780" y="125" as="targetPoint" />
          </mxGeometry>
        </mxCell>
        <mxCell id="WycvyNZacFiMH92AML4h-395" value="" style="group;fontSize=30;" vertex="1" connectable="0" parent="1">
          <mxGeometry x="3650" y="-460" width="620" height="190" as="geometry" />
        </mxCell>
        <mxCell id="WycvyNZacFiMH92AML4h-396" value="" style="group" vertex="1" connectable="0" parent="WycvyNZacFiMH92AML4h-395">
          <mxGeometry width="440" height="190" as="geometry" />
        </mxCell>
        <mxCell id="WycvyNZacFiMH92AML4h-397" value="" style="group" vertex="1" connectable="0" parent="WycvyNZacFiMH92AML4h-396">
          <mxGeometry y="60" width="440" height="130" as="geometry" />
        </mxCell>
        <mxCell id="WycvyNZacFiMH92AML4h-398" value="&lt;font style=&quot;font-size: 30px;&quot;&gt;&lt;font style=&quot;font-size: 30px;&quot;&gt;FIR&lt;/font&gt;&lt;font style=&quot;font-size: 30px;&quot;&gt;4&lt;/font&gt;&lt;/font&gt;" style="rounded=0;whiteSpace=wrap;html=1;" vertex="1" parent="WycvyNZacFiMH92AML4h-397">
          <mxGeometry x="141.76" width="298.24" height="130" as="geometry" />
        </mxCell>
        <mxCell id="WycvyNZacFiMH92AML4h-399" value="" style="endArrow=classic;html=1;rounded=0;entryX=0;entryY=0.5;entryDx=0;entryDy=0;" edge="1" parent="WycvyNZacFiMH92AML4h-397" target="WycvyNZacFiMH92AML4h-398">
          <mxGeometry width="50" height="50" relative="1" as="geometry">
            <mxPoint x="-200" y="65" as="sourcePoint" />
            <mxPoint x="366.4464993394979" y="90" as="targetPoint" />
          </mxGeometry>
        </mxCell>
        <mxCell id="WycvyNZacFiMH92AML4h-400" value="" style="endArrow=classic;html=1;rounded=0;entryX=0.5;entryY=0;entryDx=0;entryDy=0;" edge="1" parent="WycvyNZacFiMH92AML4h-396" target="WycvyNZacFiMH92AML4h-398">
          <mxGeometry width="50" height="50" relative="1" as="geometry">
            <mxPoint x="291" as="sourcePoint" />
            <mxPoint x="450" y="110" as="targetPoint" />
          </mxGeometry>
        </mxCell>
        <mxCell id="WycvyNZacFiMH92AML4h-401" value="" style="endArrow=classic;html=1;rounded=0;exitX=1;exitY=0.5;exitDx=0;exitDy=0;" edge="1" parent="WycvyNZacFiMH92AML4h-395" source="WycvyNZacFiMH92AML4h-398">
          <mxGeometry width="50" height="50" relative="1" as="geometry">
            <mxPoint x="490" y="150" as="sourcePoint" />
            <mxPoint x="780" y="125" as="targetPoint" />
          </mxGeometry>
        </mxCell>
        <mxCell id="WycvyNZacFiMH92AML4h-402" value="" style="group" vertex="1" connectable="0" parent="1">
          <mxGeometry x="3650" y="-240" width="620" height="190" as="geometry" />
        </mxCell>
        <mxCell id="WycvyNZacFiMH92AML4h-403" value="" style="group" vertex="1" connectable="0" parent="WycvyNZacFiMH92AML4h-402">
          <mxGeometry width="440" height="190" as="geometry" />
        </mxCell>
        <mxCell id="WycvyNZacFiMH92AML4h-404" value="" style="group" vertex="1" connectable="0" parent="WycvyNZacFiMH92AML4h-403">
          <mxGeometry y="60" width="440" height="130" as="geometry" />
        </mxCell>
        <mxCell id="WycvyNZacFiMH92AML4h-405" value="&lt;font style=&quot;font-size: 30px;&quot;&gt;&lt;font style=&quot;font-size: 30px;&quot;&gt;FIR&lt;/font&gt;&lt;font style=&quot;font-size: 30px;&quot;&gt;5&lt;/font&gt;&lt;/font&gt;" style="rounded=0;whiteSpace=wrap;html=1;" vertex="1" parent="WycvyNZacFiMH92AML4h-404">
          <mxGeometry x="141.76" width="298.24" height="130" as="geometry" />
        </mxCell>
        <mxCell id="WycvyNZacFiMH92AML4h-406" value="" style="endArrow=classic;html=1;rounded=0;entryX=0;entryY=0.5;entryDx=0;entryDy=0;" edge="1" parent="WycvyNZacFiMH92AML4h-404" target="WycvyNZacFiMH92AML4h-405">
          <mxGeometry width="50" height="50" relative="1" as="geometry">
            <mxPoint x="-200" y="65" as="sourcePoint" />
            <mxPoint x="366.4464993394979" y="90" as="targetPoint" />
          </mxGeometry>
        </mxCell>
        <mxCell id="WycvyNZacFiMH92AML4h-407" value="" style="endArrow=classic;html=1;rounded=0;entryX=0.5;entryY=0;entryDx=0;entryDy=0;" edge="1" parent="WycvyNZacFiMH92AML4h-403" target="WycvyNZacFiMH92AML4h-405">
          <mxGeometry width="50" height="50" relative="1" as="geometry">
            <mxPoint x="291" as="sourcePoint" />
            <mxPoint x="450" y="110" as="targetPoint" />
          </mxGeometry>
        </mxCell>
        <mxCell id="WycvyNZacFiMH92AML4h-408" value="" style="endArrow=classic;html=1;rounded=0;exitX=1;exitY=0.5;exitDx=0;exitDy=0;" edge="1" parent="WycvyNZacFiMH92AML4h-402" source="WycvyNZacFiMH92AML4h-405">
          <mxGeometry width="50" height="50" relative="1" as="geometry">
            <mxPoint x="490" y="150" as="sourcePoint" />
            <mxPoint x="780" y="125" as="targetPoint" />
          </mxGeometry>
        </mxCell>
        <mxCell id="WycvyNZacFiMH92AML4h-409" value="" style="group" vertex="1" connectable="0" parent="1">
          <mxGeometry x="3650" y="-30" width="620" height="190" as="geometry" />
        </mxCell>
        <mxCell id="WycvyNZacFiMH92AML4h-410" value="" style="group" vertex="1" connectable="0" parent="WycvyNZacFiMH92AML4h-409">
          <mxGeometry width="440" height="190" as="geometry" />
        </mxCell>
        <mxCell id="WycvyNZacFiMH92AML4h-411" value="" style="group" vertex="1" connectable="0" parent="WycvyNZacFiMH92AML4h-410">
          <mxGeometry y="60" width="440" height="130" as="geometry" />
        </mxCell>
        <mxCell id="WycvyNZacFiMH92AML4h-412" value="&lt;font style=&quot;font-size: 30px;&quot;&gt;&lt;font style=&quot;font-size: 30px;&quot;&gt;FIR&lt;/font&gt;&lt;font style=&quot;font-size: 30px;&quot;&gt;6&lt;/font&gt;&lt;/font&gt;" style="rounded=0;whiteSpace=wrap;html=1;" vertex="1" parent="WycvyNZacFiMH92AML4h-411">
          <mxGeometry x="141.76" width="298.24" height="130" as="geometry" />
        </mxCell>
        <mxCell id="WycvyNZacFiMH92AML4h-413" value="" style="endArrow=classic;html=1;rounded=0;entryX=0;entryY=0.5;entryDx=0;entryDy=0;" edge="1" parent="WycvyNZacFiMH92AML4h-411" target="WycvyNZacFiMH92AML4h-412">
          <mxGeometry width="50" height="50" relative="1" as="geometry">
            <mxPoint x="-200" y="65" as="sourcePoint" />
            <mxPoint x="366.4464993394979" y="90" as="targetPoint" />
          </mxGeometry>
        </mxCell>
        <mxCell id="WycvyNZacFiMH92AML4h-414" value="" style="endArrow=classic;html=1;rounded=0;entryX=0.5;entryY=0;entryDx=0;entryDy=0;" edge="1" parent="WycvyNZacFiMH92AML4h-410" target="WycvyNZacFiMH92AML4h-412">
          <mxGeometry width="50" height="50" relative="1" as="geometry">
            <mxPoint x="291" as="sourcePoint" />
            <mxPoint x="450" y="110" as="targetPoint" />
          </mxGeometry>
        </mxCell>
        <mxCell id="WycvyNZacFiMH92AML4h-415" value="" style="endArrow=classic;html=1;rounded=0;exitX=1;exitY=0.5;exitDx=0;exitDy=0;" edge="1" parent="WycvyNZacFiMH92AML4h-409" source="WycvyNZacFiMH92AML4h-412">
          <mxGeometry width="50" height="50" relative="1" as="geometry">
            <mxPoint x="490" y="150" as="sourcePoint" />
            <mxPoint x="780" y="125" as="targetPoint" />
          </mxGeometry>
        </mxCell>
        <mxCell id="WycvyNZacFiMH92AML4h-416" value="" style="endArrow=none;html=1;rounded=0;" edge="1" parent="1">
          <mxGeometry width="50" height="50" relative="1" as="geometry">
            <mxPoint x="3450" y="350" as="sourcePoint" />
            <mxPoint x="3450" y="-1220" as="targetPoint" />
          </mxGeometry>
        </mxCell>
        <mxCell id="WycvyNZacFiMH92AML4h-417" style="edgeStyle=orthogonalEdgeStyle;rounded=0;orthogonalLoop=1;jettySize=auto;html=1;shape=flexArrow;" edge="1" parent="1" source="WycvyNZacFiMH92AML4h-418">
          <mxGeometry relative="1" as="geometry">
            <mxPoint x="4680" y="-447" as="targetPoint" />
          </mxGeometry>
        </mxCell>
        <mxCell id="WycvyNZacFiMH92AML4h-418" value="&lt;font style=&quot;font-size: 70px;&quot;&gt;+&lt;/font&gt;" style="ellipse;whiteSpace=wrap;html=1;aspect=fixed;" vertex="1" parent="1">
          <mxGeometry x="4360" y="-522" width="150" height="150" as="geometry" />
        </mxCell>
        <mxCell id="WycvyNZacFiMH92AML4h-419" value="" style="group" vertex="1" connectable="0" parent="1">
          <mxGeometry x="3650" y="220" width="620" height="190" as="geometry" />
        </mxCell>
        <mxCell id="WycvyNZacFiMH92AML4h-420" value="" style="group" vertex="1" connectable="0" parent="WycvyNZacFiMH92AML4h-419">
          <mxGeometry width="440" height="190" as="geometry" />
        </mxCell>
        <mxCell id="WycvyNZacFiMH92AML4h-421" value="" style="group" vertex="1" connectable="0" parent="WycvyNZacFiMH92AML4h-420">
          <mxGeometry y="60" width="440" height="130" as="geometry" />
        </mxCell>
        <mxCell id="WycvyNZacFiMH92AML4h-422" value="&lt;font style=&quot;font-size: 30px;&quot;&gt;&lt;font style=&quot;font-size: 30px;&quot;&gt;FIR&lt;/font&gt;&lt;font style=&quot;font-size: 30px;&quot;&gt;7&lt;/font&gt;&lt;/font&gt;" style="rounded=0;whiteSpace=wrap;html=1;" vertex="1" parent="WycvyNZacFiMH92AML4h-421">
          <mxGeometry x="141.76" width="298.24" height="130" as="geometry" />
        </mxCell>
        <mxCell id="WycvyNZacFiMH92AML4h-423" value="" style="endArrow=classic;html=1;rounded=0;entryX=0;entryY=0.5;entryDx=0;entryDy=0;" edge="1" parent="WycvyNZacFiMH92AML4h-421" target="WycvyNZacFiMH92AML4h-422">
          <mxGeometry width="50" height="50" relative="1" as="geometry">
            <mxPoint x="-200" y="65" as="sourcePoint" />
            <mxPoint x="366.4464993394979" y="90" as="targetPoint" />
          </mxGeometry>
        </mxCell>
        <mxCell id="WycvyNZacFiMH92AML4h-424" value="" style="endArrow=classic;html=1;rounded=0;entryX=0.5;entryY=0;entryDx=0;entryDy=0;" edge="1" parent="WycvyNZacFiMH92AML4h-420" target="WycvyNZacFiMH92AML4h-422">
          <mxGeometry width="50" height="50" relative="1" as="geometry">
            <mxPoint x="291" as="sourcePoint" />
            <mxPoint x="450" y="110" as="targetPoint" />
          </mxGeometry>
        </mxCell>
        <mxCell id="WycvyNZacFiMH92AML4h-425" value="" style="endArrow=classic;html=1;rounded=0;fontSize=19;shape=flexArrow;" edge="1" parent="1">
          <mxGeometry width="50" height="50" relative="1" as="geometry">
            <mxPoint x="3020" y="-450" as="sourcePoint" />
            <mxPoint x="3450" y="-450" as="targetPoint" />
          </mxGeometry>
        </mxCell>
        <mxCell id="WycvyNZacFiMH92AML4h-426" value="&lt;font style=&quot;font-size: 30px;&quot;&gt;X[n]&lt;/font&gt;" style="text;html=1;align=center;verticalAlign=middle;resizable=0;points=[];autosize=1;strokeColor=none;fillColor=none;" vertex="1" parent="1">
          <mxGeometry x="3180" y="-510" width="80" height="50" as="geometry" />
        </mxCell>
        <mxCell id="WycvyNZacFiMH92AML4h-427" value="" style="endArrow=classic;html=1;rounded=0;exitX=1;exitY=0.5;exitDx=0;exitDy=0;entryX=0.5;entryY=1;entryDx=0;entryDy=0;" edge="1" parent="1" source="WycvyNZacFiMH92AML4h-422" target="WycvyNZacFiMH92AML4h-418">
          <mxGeometry width="50" height="50" relative="1" as="geometry">
            <mxPoint x="3940" y="370" as="sourcePoint" />
            <mxPoint x="4070" y="345" as="targetPoint" />
            <Array as="points">
              <mxPoint x="4435" y="345" />
            </Array>
          </mxGeometry>
        </mxCell>
        <mxCell id="WycvyNZacFiMH92AML4h-428" value="&lt;font style=&quot;font-size: 35px;&quot;&gt;&lt;font style=&quot;font-size: 35px;&quot;&gt;FIR&lt;/font&gt;0&lt;/font&gt;" style="rounded=0;whiteSpace=wrap;html=1;" vertex="1" parent="1">
          <mxGeometry x="3790" y="-1279" width="298.24" height="130" as="geometry" />
        </mxCell>
        <mxCell id="WycvyNZacFiMH92AML4h-431" value="" style="group" vertex="1" connectable="0" parent="1">
          <mxGeometry x="1100" y="1090" width="505" height="480" as="geometry" />
        </mxCell>
        <mxCell id="WycvyNZacFiMH92AML4h-432" value="" style="endArrow=classic;html=1;rounded=0;" edge="1" parent="WycvyNZacFiMH92AML4h-431">
          <mxGeometry width="50" height="50" relative="1" as="geometry">
            <mxPoint x="10" y="59.620000000000005" as="sourcePoint" />
            <mxPoint x="490" y="59.620000000000005" as="targetPoint" />
          </mxGeometry>
        </mxCell>
        <mxCell id="WycvyNZacFiMH92AML4h-433" value="" style="group;rotation=-90;" vertex="1" connectable="0" parent="WycvyNZacFiMH92AML4h-431">
          <mxGeometry x="130" y="145" width="110" height="200" as="geometry" />
        </mxCell>
        <mxCell id="WycvyNZacFiMH92AML4h-434" value="" style="group;rotation=-90;" vertex="1" connectable="0" parent="WycvyNZacFiMH92AML4h-433">
          <mxGeometry y="10" width="110" height="190" as="geometry" />
        </mxCell>
        <mxCell id="WycvyNZacFiMH92AML4h-435" value="" style="group" vertex="1" connectable="0" parent="WycvyNZacFiMH92AML4h-434">
          <mxGeometry x="-70" y="70" width="190" height="50" as="geometry" />
        </mxCell>
        <mxCell id="WycvyNZacFiMH92AML4h-436" value="" style="endArrow=classic;html=1;rounded=0;entryX=0.5;entryY=0;entryDx=0;entryDy=0;" edge="1" parent="WycvyNZacFiMH92AML4h-435">
          <mxGeometry width="50" height="50" relative="1" as="geometry">
            <mxPoint y="25" as="sourcePoint" />
            <mxPoint x="140" y="25" as="targetPoint" />
          </mxGeometry>
        </mxCell>
        <mxCell id="WycvyNZacFiMH92AML4h-437" value="" style="triangle;whiteSpace=wrap;html=1;rotation=0;" vertex="1" parent="WycvyNZacFiMH92AML4h-435">
          <mxGeometry x="58" y="5" width="25" height="40" as="geometry" />
        </mxCell>
        <mxCell id="WycvyNZacFiMH92AML4h-438" value="&lt;font style=&quot;font-size: 70px;&quot;&gt;+&lt;/font&gt;" style="ellipse;whiteSpace=wrap;html=1;aspect=fixed;" vertex="1" parent="WycvyNZacFiMH92AML4h-435">
          <mxGeometry x="140" width="50" height="50" as="geometry" />
        </mxCell>
        <mxCell id="WycvyNZacFiMH92AML4h-439" value="b1" style="text;html=1;align=center;verticalAlign=middle;resizable=0;points=[];autosize=1;strokeColor=none;fillColor=none;" vertex="1" parent="WycvyNZacFiMH92AML4h-434">
          <mxGeometry x="-27.5" y="115" width="40" height="30" as="geometry" />
        </mxCell>
        <mxCell id="WycvyNZacFiMH92AML4h-440" value="" style="group;rotation=-90;" vertex="1" connectable="0" parent="WycvyNZacFiMH92AML4h-431">
          <mxGeometry x="130" y="325" width="110" height="200" as="geometry" />
        </mxCell>
        <mxCell id="WycvyNZacFiMH92AML4h-441" value="" style="group;rotation=-90;" vertex="1" connectable="0" parent="WycvyNZacFiMH92AML4h-440">
          <mxGeometry y="10" width="110" height="190" as="geometry" />
        </mxCell>
        <mxCell id="WycvyNZacFiMH92AML4h-442" value="" style="group" vertex="1" connectable="0" parent="WycvyNZacFiMH92AML4h-441">
          <mxGeometry x="-70" y="70" width="190" height="50" as="geometry" />
        </mxCell>
        <mxCell id="WycvyNZacFiMH92AML4h-443" value="" style="endArrow=classic;html=1;rounded=0;entryX=0.5;entryY=0;entryDx=0;entryDy=0;" edge="1" parent="WycvyNZacFiMH92AML4h-442">
          <mxGeometry width="50" height="50" relative="1" as="geometry">
            <mxPoint y="25" as="sourcePoint" />
            <mxPoint x="140" y="25" as="targetPoint" />
          </mxGeometry>
        </mxCell>
        <mxCell id="WycvyNZacFiMH92AML4h-444" value="" style="triangle;whiteSpace=wrap;html=1;rotation=0;" vertex="1" parent="WycvyNZacFiMH92AML4h-442">
          <mxGeometry x="58" y="5" width="25" height="40" as="geometry" />
        </mxCell>
        <mxCell id="WycvyNZacFiMH92AML4h-445" value="&lt;font style=&quot;font-size: 70px;&quot;&gt;+&lt;/font&gt;" style="ellipse;whiteSpace=wrap;html=1;aspect=fixed;" vertex="1" parent="WycvyNZacFiMH92AML4h-442">
          <mxGeometry x="140" width="50" height="50" as="geometry" />
        </mxCell>
        <mxCell id="WycvyNZacFiMH92AML4h-446" value="b2" style="text;html=1;align=center;verticalAlign=middle;resizable=0;points=[];autosize=1;strokeColor=none;fillColor=none;" vertex="1" parent="WycvyNZacFiMH92AML4h-441">
          <mxGeometry x="-25" y="40" width="40" height="30" as="geometry" />
        </mxCell>
        <mxCell id="WycvyNZacFiMH92AML4h-447" value="" style="group;rotation=-90;" vertex="1" connectable="0" parent="WycvyNZacFiMH92AML4h-431">
          <mxGeometry x="130" y="-45" width="110" height="200" as="geometry" />
        </mxCell>
        <mxCell id="WycvyNZacFiMH92AML4h-448" value="" style="group;rotation=-90;" vertex="1" connectable="0" parent="WycvyNZacFiMH92AML4h-447">
          <mxGeometry y="10" width="110" height="190" as="geometry" />
        </mxCell>
        <mxCell id="WycvyNZacFiMH92AML4h-449" value="" style="group" vertex="1" connectable="0" parent="WycvyNZacFiMH92AML4h-448">
          <mxGeometry x="-70" y="70" width="190" height="50" as="geometry" />
        </mxCell>
        <mxCell id="WycvyNZacFiMH92AML4h-450" value="" style="endArrow=classic;html=1;rounded=0;entryX=0.5;entryY=0;entryDx=0;entryDy=0;" edge="1" parent="WycvyNZacFiMH92AML4h-449">
          <mxGeometry width="50" height="50" relative="1" as="geometry">
            <mxPoint y="25" as="sourcePoint" />
            <mxPoint x="140" y="25" as="targetPoint" />
          </mxGeometry>
        </mxCell>
        <mxCell id="WycvyNZacFiMH92AML4h-451" value="" style="triangle;whiteSpace=wrap;html=1;rotation=0;" vertex="1" parent="WycvyNZacFiMH92AML4h-449">
          <mxGeometry x="58" y="5" width="25" height="40" as="geometry" />
        </mxCell>
        <mxCell id="WycvyNZacFiMH92AML4h-452" value="&lt;font style=&quot;font-size: 70px;&quot;&gt;+&lt;/font&gt;" style="ellipse;whiteSpace=wrap;html=1;aspect=fixed;" vertex="1" parent="WycvyNZacFiMH92AML4h-449">
          <mxGeometry x="140" width="50" height="50" as="geometry" />
        </mxCell>
        <mxCell id="WycvyNZacFiMH92AML4h-453" value="b0" style="text;html=1;align=center;verticalAlign=middle;resizable=0;points=[];autosize=1;strokeColor=none;fillColor=none;" vertex="1" parent="WycvyNZacFiMH92AML4h-448">
          <mxGeometry x="-25" y="115" width="40" height="30" as="geometry" />
        </mxCell>
        <mxCell id="WycvyNZacFiMH92AML4h-454" style="edgeStyle=orthogonalEdgeStyle;rounded=0;orthogonalLoop=1;jettySize=auto;html=1;entryX=0.5;entryY=1;entryDx=0;entryDy=0;" edge="1" parent="WycvyNZacFiMH92AML4h-431" source="WycvyNZacFiMH92AML4h-455" target="WycvyNZacFiMH92AML4h-452">
          <mxGeometry relative="1" as="geometry" />
        </mxCell>
        <mxCell id="WycvyNZacFiMH92AML4h-455" value="&lt;font style=&quot;font-size: 30px;&quot;&gt;D&lt;/font&gt;" style="rounded=0;whiteSpace=wrap;html=1;" vertex="1" parent="WycvyNZacFiMH92AML4h-431">
          <mxGeometry x="200" y="135" width="50" height="40" as="geometry" />
        </mxCell>
        <mxCell id="WycvyNZacFiMH92AML4h-456" style="edgeStyle=orthogonalEdgeStyle;rounded=0;orthogonalLoop=1;jettySize=auto;html=1;entryX=0.5;entryY=1;entryDx=0;entryDy=0;" edge="1" parent="WycvyNZacFiMH92AML4h-431" source="WycvyNZacFiMH92AML4h-457" target="WycvyNZacFiMH92AML4h-438">
          <mxGeometry relative="1" as="geometry" />
        </mxCell>
        <mxCell id="WycvyNZacFiMH92AML4h-457" value="&lt;font style=&quot;font-size: 30px;&quot;&gt;D&lt;/font&gt;" style="rounded=0;whiteSpace=wrap;html=1;" vertex="1" parent="WycvyNZacFiMH92AML4h-431">
          <mxGeometry x="200" y="325" width="50" height="40" as="geometry" />
        </mxCell>
        <mxCell id="WycvyNZacFiMH92AML4h-458" style="edgeStyle=orthogonalEdgeStyle;rounded=0;orthogonalLoop=1;jettySize=auto;html=1;entryX=0.5;entryY=1;entryDx=0;entryDy=0;" edge="1" parent="WycvyNZacFiMH92AML4h-431" source="WycvyNZacFiMH92AML4h-438" target="WycvyNZacFiMH92AML4h-455">
          <mxGeometry relative="1" as="geometry" />
        </mxCell>
        <mxCell id="WycvyNZacFiMH92AML4h-459" style="edgeStyle=orthogonalEdgeStyle;rounded=0;orthogonalLoop=1;jettySize=auto;html=1;entryX=0.5;entryY=1;entryDx=0;entryDy=0;" edge="1" parent="WycvyNZacFiMH92AML4h-431" source="WycvyNZacFiMH92AML4h-445" target="WycvyNZacFiMH92AML4h-457">
          <mxGeometry relative="1" as="geometry" />
        </mxCell>
        <mxCell id="WycvyNZacFiMH92AML4h-460" value="" style="group" vertex="1" connectable="0" parent="WycvyNZacFiMH92AML4h-431">
          <mxGeometry x="250" y="40" width="160" height="40" as="geometry" />
        </mxCell>
        <mxCell id="WycvyNZacFiMH92AML4h-461" value="" style="endArrow=classic;html=1;rounded=0;" edge="1" parent="WycvyNZacFiMH92AML4h-460">
          <mxGeometry width="50" height="50" relative="1" as="geometry">
            <mxPoint x="160" y="20" as="sourcePoint" />
            <mxPoint y="20" as="targetPoint" />
          </mxGeometry>
        </mxCell>
        <mxCell id="WycvyNZacFiMH92AML4h-462" value="" style="group" vertex="1" connectable="0" parent="WycvyNZacFiMH92AML4h-431">
          <mxGeometry x="250" y="235" width="160" height="40" as="geometry" />
        </mxCell>
        <mxCell id="WycvyNZacFiMH92AML4h-463" value="" style="endArrow=classic;html=1;rounded=0;" edge="1" parent="WycvyNZacFiMH92AML4h-462">
          <mxGeometry width="50" height="50" relative="1" as="geometry">
            <mxPoint x="160" y="20" as="sourcePoint" />
            <mxPoint y="20" as="targetPoint" />
          </mxGeometry>
        </mxCell>
        <mxCell id="WycvyNZacFiMH92AML4h-464" value="" style="triangle;whiteSpace=wrap;html=1;rotation=180;" vertex="1" parent="WycvyNZacFiMH92AML4h-462">
          <mxGeometry x="70" width="25" height="40" as="geometry" />
        </mxCell>
        <mxCell id="WycvyNZacFiMH92AML4h-465" value="" style="group" vertex="1" connectable="0" parent="WycvyNZacFiMH92AML4h-431">
          <mxGeometry x="250" y="415" width="160" height="40" as="geometry" />
        </mxCell>
        <mxCell id="WycvyNZacFiMH92AML4h-466" value="" style="endArrow=classic;html=1;rounded=0;" edge="1" parent="WycvyNZacFiMH92AML4h-465">
          <mxGeometry width="50" height="50" relative="1" as="geometry">
            <mxPoint x="160" y="20" as="sourcePoint" />
            <mxPoint y="20" as="targetPoint" />
          </mxGeometry>
        </mxCell>
        <mxCell id="WycvyNZacFiMH92AML4h-467" value="" style="triangle;whiteSpace=wrap;html=1;rotation=180;" vertex="1" parent="WycvyNZacFiMH92AML4h-465">
          <mxGeometry x="70" width="25" height="40" as="geometry" />
        </mxCell>
        <mxCell id="WycvyNZacFiMH92AML4h-468" value="" style="endArrow=none;html=1;rounded=0;" edge="1" parent="WycvyNZacFiMH92AML4h-431">
          <mxGeometry width="50" height="50" relative="1" as="geometry">
            <mxPoint x="60" y="430" as="sourcePoint" />
            <mxPoint x="60" y="60" as="targetPoint" />
          </mxGeometry>
        </mxCell>
        <mxCell id="WycvyNZacFiMH92AML4h-469" value="a1" style="text;html=1;align=center;verticalAlign=middle;resizable=0;points=[];autosize=1;strokeColor=none;fillColor=none;" vertex="1" parent="WycvyNZacFiMH92AML4h-431">
          <mxGeometry x="315" y="275" width="40" height="30" as="geometry" />
        </mxCell>
        <mxCell id="WycvyNZacFiMH92AML4h-470" value="a2" style="text;html=1;align=center;verticalAlign=middle;resizable=0;points=[];autosize=1;strokeColor=none;fillColor=none;" vertex="1" parent="WycvyNZacFiMH92AML4h-431">
          <mxGeometry x="320" y="385" width="40" height="30" as="geometry" />
        </mxCell>
        <mxCell id="WycvyNZacFiMH92AML4h-471" value="&lt;font style=&quot;font-size: 16px;&quot;&gt;x[n]&lt;/font&gt;" style="text;html=1;align=center;verticalAlign=middle;resizable=0;points=[];autosize=1;strokeColor=none;fillColor=none;" vertex="1" parent="WycvyNZacFiMH92AML4h-431">
          <mxGeometry y="25" width="50" height="30" as="geometry" />
        </mxCell>
        <mxCell id="WycvyNZacFiMH92AML4h-472" value="&lt;font style=&quot;font-size: 18px;&quot;&gt;y[n]&lt;/font&gt;" style="text;html=1;align=center;verticalAlign=middle;resizable=0;points=[];autosize=1;strokeColor=none;fillColor=none;" vertex="1" parent="WycvyNZacFiMH92AML4h-431">
          <mxGeometry x="421" y="20" width="50" height="40" as="geometry" />
        </mxCell>
        <mxCell id="WycvyNZacFiMH92AML4h-473" value="" style="endArrow=none;html=1;rounded=0;" edge="1" parent="WycvyNZacFiMH92AML4h-431">
          <mxGeometry width="50" height="50" relative="1" as="geometry">
            <mxPoint x="409" y="435" as="sourcePoint" />
            <mxPoint x="409.17" y="60" as="targetPoint" />
          </mxGeometry>
        </mxCell>
        <mxCell id="WycvyNZacFiMH92AML4h-475" value="&lt;font style=&quot;font-size: 30px;&quot;&gt;Y[n]&lt;/font&gt;" style="text;html=1;align=center;verticalAlign=middle;resizable=0;points=[];autosize=1;strokeColor=none;fillColor=none;" vertex="1" parent="1">
          <mxGeometry x="2650" y="-522" width="80" height="50" as="geometry" />
        </mxCell>
        <mxCell id="WycvyNZacFiMH92AML4h-476" value="&lt;font style=&quot;font-size: 30px;&quot;&gt;Y[n]&lt;/font&gt;" style="text;html=1;align=center;verticalAlign=middle;resizable=0;points=[];autosize=1;strokeColor=none;fillColor=none;" vertex="1" parent="1">
          <mxGeometry x="4549" y="-500" width="80" height="50" as="geometry" />
        </mxCell>
        <mxCell id="WycvyNZacFiMH92AML4h-477" value="g0" style="text;html=1;align=center;verticalAlign=middle;resizable=0;points=[];autosize=1;strokeColor=none;fillColor=none;" vertex="1" parent="1">
          <mxGeometry x="2060" y="-1352" width="40" height="30" as="geometry" />
        </mxCell>
        <mxCell id="WycvyNZacFiMH92AML4h-485" value="" style="group" vertex="1" connectable="0" parent="1">
          <mxGeometry x="2050" y="1090" width="505" height="480" as="geometry" />
        </mxCell>
        <mxCell id="WycvyNZacFiMH92AML4h-486" value="" style="endArrow=classic;html=1;rounded=0;" edge="1" parent="WycvyNZacFiMH92AML4h-485">
          <mxGeometry width="50" height="50" relative="1" as="geometry">
            <mxPoint x="10" y="59.620000000000005" as="sourcePoint" />
            <mxPoint x="490" y="59.620000000000005" as="targetPoint" />
          </mxGeometry>
        </mxCell>
        <mxCell id="WycvyNZacFiMH92AML4h-487" value="" style="group;rotation=-90;" vertex="1" connectable="0" parent="WycvyNZacFiMH92AML4h-485">
          <mxGeometry x="130" y="145" width="110" height="200" as="geometry" />
        </mxCell>
        <mxCell id="WycvyNZacFiMH92AML4h-488" value="" style="group;rotation=-90;" vertex="1" connectable="0" parent="WycvyNZacFiMH92AML4h-487">
          <mxGeometry y="10" width="110" height="190" as="geometry" />
        </mxCell>
        <mxCell id="WycvyNZacFiMH92AML4h-489" value="" style="group" vertex="1" connectable="0" parent="WycvyNZacFiMH92AML4h-488">
          <mxGeometry x="-70" y="70" width="190" height="50" as="geometry" />
        </mxCell>
        <mxCell id="WycvyNZacFiMH92AML4h-490" value="" style="endArrow=classic;html=1;rounded=0;entryX=0.5;entryY=0;entryDx=0;entryDy=0;" edge="1" parent="WycvyNZacFiMH92AML4h-489">
          <mxGeometry width="50" height="50" relative="1" as="geometry">
            <mxPoint y="25" as="sourcePoint" />
            <mxPoint x="140" y="25" as="targetPoint" />
          </mxGeometry>
        </mxCell>
        <mxCell id="WycvyNZacFiMH92AML4h-491" value="" style="triangle;whiteSpace=wrap;html=1;rotation=0;" vertex="1" parent="WycvyNZacFiMH92AML4h-489">
          <mxGeometry x="58" y="5" width="25" height="40" as="geometry" />
        </mxCell>
        <mxCell id="WycvyNZacFiMH92AML4h-492" value="&lt;font style=&quot;font-size: 70px;&quot;&gt;+&lt;/font&gt;" style="ellipse;whiteSpace=wrap;html=1;aspect=fixed;" vertex="1" parent="WycvyNZacFiMH92AML4h-489">
          <mxGeometry x="140" width="50" height="50" as="geometry" />
        </mxCell>
        <mxCell id="WycvyNZacFiMH92AML4h-493" value="b1" style="text;html=1;align=center;verticalAlign=middle;resizable=0;points=[];autosize=1;strokeColor=none;fillColor=none;" vertex="1" parent="WycvyNZacFiMH92AML4h-488">
          <mxGeometry x="-27.5" y="115" width="40" height="30" as="geometry" />
        </mxCell>
        <mxCell id="WycvyNZacFiMH92AML4h-494" value="" style="group;rotation=-90;" vertex="1" connectable="0" parent="WycvyNZacFiMH92AML4h-485">
          <mxGeometry x="130" y="325" width="110" height="200" as="geometry" />
        </mxCell>
        <mxCell id="WycvyNZacFiMH92AML4h-495" value="" style="group;rotation=-90;" vertex="1" connectable="0" parent="WycvyNZacFiMH92AML4h-494">
          <mxGeometry y="10" width="110" height="190" as="geometry" />
        </mxCell>
        <mxCell id="WycvyNZacFiMH92AML4h-496" value="" style="group" vertex="1" connectable="0" parent="WycvyNZacFiMH92AML4h-495">
          <mxGeometry x="-70" y="70" width="190" height="50" as="geometry" />
        </mxCell>
        <mxCell id="WycvyNZacFiMH92AML4h-497" value="" style="endArrow=classic;html=1;rounded=0;entryX=0.5;entryY=0;entryDx=0;entryDy=0;" edge="1" parent="WycvyNZacFiMH92AML4h-496">
          <mxGeometry width="50" height="50" relative="1" as="geometry">
            <mxPoint y="25" as="sourcePoint" />
            <mxPoint x="140" y="25" as="targetPoint" />
          </mxGeometry>
        </mxCell>
        <mxCell id="WycvyNZacFiMH92AML4h-498" value="" style="triangle;whiteSpace=wrap;html=1;rotation=0;" vertex="1" parent="WycvyNZacFiMH92AML4h-496">
          <mxGeometry x="58" y="5" width="25" height="40" as="geometry" />
        </mxCell>
        <mxCell id="WycvyNZacFiMH92AML4h-499" value="&lt;font style=&quot;font-size: 70px;&quot;&gt;+&lt;/font&gt;" style="ellipse;whiteSpace=wrap;html=1;aspect=fixed;" vertex="1" parent="WycvyNZacFiMH92AML4h-496">
          <mxGeometry x="140" width="50" height="50" as="geometry" />
        </mxCell>
        <mxCell id="WycvyNZacFiMH92AML4h-500" value="b2" style="text;html=1;align=center;verticalAlign=middle;resizable=0;points=[];autosize=1;strokeColor=none;fillColor=none;" vertex="1" parent="WycvyNZacFiMH92AML4h-495">
          <mxGeometry x="-25" y="40" width="40" height="30" as="geometry" />
        </mxCell>
        <mxCell id="WycvyNZacFiMH92AML4h-501" value="" style="group;rotation=-90;" vertex="1" connectable="0" parent="WycvyNZacFiMH92AML4h-485">
          <mxGeometry x="130" y="-45" width="110" height="200" as="geometry" />
        </mxCell>
        <mxCell id="WycvyNZacFiMH92AML4h-502" value="" style="group;rotation=-90;" vertex="1" connectable="0" parent="WycvyNZacFiMH92AML4h-501">
          <mxGeometry y="10" width="110" height="190" as="geometry" />
        </mxCell>
        <mxCell id="WycvyNZacFiMH92AML4h-503" value="" style="group" vertex="1" connectable="0" parent="WycvyNZacFiMH92AML4h-502">
          <mxGeometry x="-70" y="70" width="190" height="50" as="geometry" />
        </mxCell>
        <mxCell id="WycvyNZacFiMH92AML4h-504" value="" style="endArrow=classic;html=1;rounded=0;entryX=0.5;entryY=0;entryDx=0;entryDy=0;" edge="1" parent="WycvyNZacFiMH92AML4h-503">
          <mxGeometry width="50" height="50" relative="1" as="geometry">
            <mxPoint y="25" as="sourcePoint" />
            <mxPoint x="140" y="25" as="targetPoint" />
          </mxGeometry>
        </mxCell>
        <mxCell id="WycvyNZacFiMH92AML4h-505" value="" style="triangle;whiteSpace=wrap;html=1;rotation=0;" vertex="1" parent="WycvyNZacFiMH92AML4h-503">
          <mxGeometry x="58" y="5" width="25" height="40" as="geometry" />
        </mxCell>
        <mxCell id="WycvyNZacFiMH92AML4h-506" value="&lt;font style=&quot;font-size: 70px;&quot;&gt;+&lt;/font&gt;" style="ellipse;whiteSpace=wrap;html=1;aspect=fixed;" vertex="1" parent="WycvyNZacFiMH92AML4h-503">
          <mxGeometry x="140" width="50" height="50" as="geometry" />
        </mxCell>
        <mxCell id="WycvyNZacFiMH92AML4h-507" value="b0" style="text;html=1;align=center;verticalAlign=middle;resizable=0;points=[];autosize=1;strokeColor=none;fillColor=none;" vertex="1" parent="WycvyNZacFiMH92AML4h-502">
          <mxGeometry x="-25" y="115" width="40" height="30" as="geometry" />
        </mxCell>
        <mxCell id="WycvyNZacFiMH92AML4h-508" style="edgeStyle=orthogonalEdgeStyle;rounded=0;orthogonalLoop=1;jettySize=auto;html=1;entryX=0.5;entryY=1;entryDx=0;entryDy=0;" edge="1" parent="WycvyNZacFiMH92AML4h-485" source="WycvyNZacFiMH92AML4h-509" target="WycvyNZacFiMH92AML4h-506">
          <mxGeometry relative="1" as="geometry" />
        </mxCell>
        <mxCell id="WycvyNZacFiMH92AML4h-509" value="&lt;font style=&quot;font-size: 30px;&quot;&gt;D&lt;/font&gt;" style="rounded=0;whiteSpace=wrap;html=1;" vertex="1" parent="WycvyNZacFiMH92AML4h-485">
          <mxGeometry x="200" y="135" width="50" height="40" as="geometry" />
        </mxCell>
        <mxCell id="WycvyNZacFiMH92AML4h-510" style="edgeStyle=orthogonalEdgeStyle;rounded=0;orthogonalLoop=1;jettySize=auto;html=1;entryX=0.5;entryY=1;entryDx=0;entryDy=0;" edge="1" parent="WycvyNZacFiMH92AML4h-485" source="WycvyNZacFiMH92AML4h-511" target="WycvyNZacFiMH92AML4h-492">
          <mxGeometry relative="1" as="geometry" />
        </mxCell>
        <mxCell id="WycvyNZacFiMH92AML4h-511" value="&lt;font style=&quot;font-size: 30px;&quot;&gt;D&lt;/font&gt;" style="rounded=0;whiteSpace=wrap;html=1;" vertex="1" parent="WycvyNZacFiMH92AML4h-485">
          <mxGeometry x="200" y="325" width="50" height="40" as="geometry" />
        </mxCell>
        <mxCell id="WycvyNZacFiMH92AML4h-512" style="edgeStyle=orthogonalEdgeStyle;rounded=0;orthogonalLoop=1;jettySize=auto;html=1;entryX=0.5;entryY=1;entryDx=0;entryDy=0;" edge="1" parent="WycvyNZacFiMH92AML4h-485" source="WycvyNZacFiMH92AML4h-492" target="WycvyNZacFiMH92AML4h-509">
          <mxGeometry relative="1" as="geometry" />
        </mxCell>
        <mxCell id="WycvyNZacFiMH92AML4h-513" style="edgeStyle=orthogonalEdgeStyle;rounded=0;orthogonalLoop=1;jettySize=auto;html=1;entryX=0.5;entryY=1;entryDx=0;entryDy=0;" edge="1" parent="WycvyNZacFiMH92AML4h-485" source="WycvyNZacFiMH92AML4h-499" target="WycvyNZacFiMH92AML4h-511">
          <mxGeometry relative="1" as="geometry" />
        </mxCell>
        <mxCell id="WycvyNZacFiMH92AML4h-514" value="" style="group" vertex="1" connectable="0" parent="WycvyNZacFiMH92AML4h-485">
          <mxGeometry x="250" y="40" width="160" height="40" as="geometry" />
        </mxCell>
        <mxCell id="WycvyNZacFiMH92AML4h-515" value="" style="endArrow=classic;html=1;rounded=0;" edge="1" parent="WycvyNZacFiMH92AML4h-514">
          <mxGeometry width="50" height="50" relative="1" as="geometry">
            <mxPoint x="160" y="20" as="sourcePoint" />
            <mxPoint y="20" as="targetPoint" />
          </mxGeometry>
        </mxCell>
        <mxCell id="WycvyNZacFiMH92AML4h-516" value="" style="group" vertex="1" connectable="0" parent="WycvyNZacFiMH92AML4h-485">
          <mxGeometry x="250" y="235" width="160" height="40" as="geometry" />
        </mxCell>
        <mxCell id="WycvyNZacFiMH92AML4h-517" value="" style="endArrow=classic;html=1;rounded=0;" edge="1" parent="WycvyNZacFiMH92AML4h-516">
          <mxGeometry width="50" height="50" relative="1" as="geometry">
            <mxPoint x="160" y="20" as="sourcePoint" />
            <mxPoint y="20" as="targetPoint" />
          </mxGeometry>
        </mxCell>
        <mxCell id="WycvyNZacFiMH92AML4h-518" value="" style="triangle;whiteSpace=wrap;html=1;rotation=180;" vertex="1" parent="WycvyNZacFiMH92AML4h-516">
          <mxGeometry x="70" width="25" height="40" as="geometry" />
        </mxCell>
        <mxCell id="WycvyNZacFiMH92AML4h-519" value="" style="group" vertex="1" connectable="0" parent="WycvyNZacFiMH92AML4h-485">
          <mxGeometry x="250" y="415" width="160" height="40" as="geometry" />
        </mxCell>
        <mxCell id="WycvyNZacFiMH92AML4h-520" value="" style="endArrow=classic;html=1;rounded=0;" edge="1" parent="WycvyNZacFiMH92AML4h-519">
          <mxGeometry width="50" height="50" relative="1" as="geometry">
            <mxPoint x="160" y="20" as="sourcePoint" />
            <mxPoint y="20" as="targetPoint" />
          </mxGeometry>
        </mxCell>
        <mxCell id="WycvyNZacFiMH92AML4h-521" value="" style="triangle;whiteSpace=wrap;html=1;rotation=180;" vertex="1" parent="WycvyNZacFiMH92AML4h-519">
          <mxGeometry x="70" width="25" height="40" as="geometry" />
        </mxCell>
        <mxCell id="WycvyNZacFiMH92AML4h-522" value="" style="endArrow=none;html=1;rounded=0;" edge="1" parent="WycvyNZacFiMH92AML4h-485">
          <mxGeometry width="50" height="50" relative="1" as="geometry">
            <mxPoint x="60" y="430" as="sourcePoint" />
            <mxPoint x="60" y="60" as="targetPoint" />
          </mxGeometry>
        </mxCell>
        <mxCell id="WycvyNZacFiMH92AML4h-523" value="a1" style="text;html=1;align=center;verticalAlign=middle;resizable=0;points=[];autosize=1;strokeColor=none;fillColor=none;" vertex="1" parent="WycvyNZacFiMH92AML4h-485">
          <mxGeometry x="315" y="275" width="40" height="30" as="geometry" />
        </mxCell>
        <mxCell id="WycvyNZacFiMH92AML4h-524" value="a2" style="text;html=1;align=center;verticalAlign=middle;resizable=0;points=[];autosize=1;strokeColor=none;fillColor=none;" vertex="1" parent="WycvyNZacFiMH92AML4h-485">
          <mxGeometry x="320" y="385" width="40" height="30" as="geometry" />
        </mxCell>
        <mxCell id="WycvyNZacFiMH92AML4h-525" value="&lt;font style=&quot;font-size: 16px;&quot;&gt;x[n]&lt;/font&gt;" style="text;html=1;align=center;verticalAlign=middle;resizable=0;points=[];autosize=1;strokeColor=none;fillColor=none;" vertex="1" parent="WycvyNZacFiMH92AML4h-485">
          <mxGeometry y="25" width="50" height="30" as="geometry" />
        </mxCell>
        <mxCell id="WycvyNZacFiMH92AML4h-526" value="&lt;font style=&quot;font-size: 18px;&quot;&gt;y[n]&lt;/font&gt;" style="text;html=1;align=center;verticalAlign=middle;resizable=0;points=[];autosize=1;strokeColor=none;fillColor=none;" vertex="1" parent="WycvyNZacFiMH92AML4h-485">
          <mxGeometry x="421" y="20" width="50" height="40" as="geometry" />
        </mxCell>
        <mxCell id="WycvyNZacFiMH92AML4h-527" value="" style="endArrow=none;html=1;rounded=0;" edge="1" parent="WycvyNZacFiMH92AML4h-485">
          <mxGeometry width="50" height="50" relative="1" as="geometry">
            <mxPoint x="409" y="435" as="sourcePoint" />
            <mxPoint x="409.17" y="60" as="targetPoint" />
          </mxGeometry>
        </mxCell>
      </root>
    </mxGraphModel>
  </diagram>
</mxfile>
